<svg width="375" height="44" viewBox="0 0 375 44" fill="none" xmlns="http://www.w3.org/2000/svg">
<rect width="375" height="44" fill="white"/>
<rect x="30" width="44" height="44" rx="14" fill="#F7F9FA"/>
<path d="M54.7042 17.71C55.0963 17.3211 55.0989 16.6879 54.71 16.2958C54.3211 15.9037 53.6879 15.9011 53.2958 16.29L54.7042 17.71ZM50.3797 20.5909L51.0839 21.3009L51.0839 21.3009L50.3797 20.5909ZM50.3797 22.4091L51.0839 21.6991L51.0839 21.6991L50.3797 22.4091ZM53.2958 26.71C53.6879 27.0989 54.3211 27.0963 54.71 26.7042C55.0989 26.3121 55.0963 25.6789 54.7042 25.29L53.2958 26.71ZM53.2958 16.29L49.6755 19.8809L51.0839 21.3009L54.7042 17.71L53.2958 16.29ZM49.6755 23.1191L53.2958 26.71L54.7042 25.29L51.0839 21.6991L49.6755 23.1191ZM49.6755 19.8809C48.7748 20.7742 48.7748 22.2259 49.6755 23.1191L51.0839 21.6991C50.972 21.5882 50.972 21.4118 51.0839 21.3009L49.6755 19.8809Z" fill="#181B1B"/>
</svg>
