<svg width="26" height="25" viewBox="0 0 26 25" fill="none" xmlns="http://www.w3.org/2000/svg">
<path d="M9.75 16.2698C15.0368 16.2698 19.5 17.1397 19.5 20.4994C19.5 23.8591 15.0082 24.7 9.75 24.7C4.46317 24.7 0 23.8288 0 20.4704C0 17.1107 4.49049 16.2698 9.75 16.2698ZM22.0987 6.5C22.7438 6.5 23.2673 7.03228 23.2673 7.6851V9.21422H24.8313C25.4751 9.21422 26 9.7465 26 10.3993C26 11.0521 25.4751 11.5844 24.8313 11.5844H23.2673V13.1149C23.2673 13.7677 22.7438 14.3 22.0987 14.3C21.4549 14.3 20.93 13.7677 20.93 13.1149V11.5844H19.3687C18.7236 11.5844 18.2 11.0521 18.2 10.3993C18.2 9.7465 18.7236 9.21422 19.3687 9.21422H20.93V7.6851C20.93 7.03228 21.4549 6.5 22.0987 6.5ZM9.75 0C13.3309 0 16.2014 2.90762 16.2014 6.53489C16.2014 10.1622 13.3309 13.0698 9.75 13.0698C6.16906 13.0698 3.29858 10.1622 3.29858 6.53489C3.29858 2.90762 6.16906 0 9.75 0Z" fill="black"/>
</svg>
