<svg width="23" height="25" viewBox="0 0 23 25" fill="none" xmlns="http://www.w3.org/2000/svg">
<path fill-rule="evenodd" clip-rule="evenodd" d="M9.58912 0.43714C10.086 0.150757 10.6494 0 11.2229 0C11.7965 0 12.3599 0.150757 12.8568 0.43714L12.8588 0.438333L20.8061 4.97964L20.81 4.98185C21.2174 5.2171 21.5683 5.53682 21.8397 5.91819C21.9025 5.97992 21.958 6.05102 22.0043 6.13092C22.0442 6.20001 22.075 6.27189 22.097 6.34515C22.3255 6.79946 22.4454 7.30165 22.4459 7.81194L22.4459 7.81296V16.9L22.4459 16.901C22.4453 17.4748 22.2938 18.0383 22.0067 18.535C21.7196 19.0318 21.3069 19.4443 20.81 19.7311L20.8061 19.7333L12.8588 24.2747L12.8567 24.2759C12.5039 24.4792 12.1175 24.6142 11.7178 24.6753C11.5719 24.7586 11.403 24.8062 11.2229 24.8062C11.0429 24.8062 10.874 24.7586 10.728 24.6753C10.3284 24.6142 9.94201 24.4792 9.58922 24.2759L9.58706 24.2747L1.63974 19.7333L1.63588 19.7311C1.139 19.4443 0.7263 19.0318 0.439172 18.535C0.152044 18.0383 0.000589013 17.4748 0 16.901V16.9V7.81296V7.81194C0.000521872 7.30359 0.119476 6.80329 0.346294 6.35034C0.368356 6.27529 0.399638 6.20164 0.440549 6.13092C0.487628 6.04953 0.544423 5.97727 0.608618 5.91474C0.879696 5.53489 1.22966 5.21639 1.63588 4.98186L1.63974 4.97964L1.63974 4.97964L9.58706 0.438333L9.58912 0.43714ZM12.2229 22.3345L19.81 17.9991L19.8118 17.9981C20.0041 17.8866 20.1639 17.7266 20.2752 17.5341C20.3868 17.3411 20.4457 17.122 20.4459 16.899V8.18765L12.2229 12.9443V22.3345ZM10.2229 12.945V22.3345L2.63588 17.9991L2.63413 17.9981C2.44177 17.8866 2.28198 17.7266 2.17071 17.5341C2.05917 17.3412 2.00031 17.1223 2 16.8994V8.18827L10.2229 12.945ZM11.8627 2.1726L19.4022 6.48088L11.2224 11.2126L3.04316 6.48118L10.5832 2.1726L10.5832 2.17261L10.5871 2.17038C10.7804 2.05876 10.9997 2 11.2229 2C11.4462 2 11.6655 2.05876 11.8588 2.17038L11.8588 2.17039L11.8627 2.1726Z" fill="#696D6D"/>
</svg>
