<svg width="23" height="25" viewBox="0 0 23 25" fill="none" xmlns="http://www.w3.org/2000/svg">
<path fill-rule="evenodd" clip-rule="evenodd" d="M9.58912 0.43714C10.086 0.150757 10.6494 0 11.2229 0C11.7965 0 12.3599 0.150757 12.8568 0.43714L12.8588 0.438333L20.8061 4.97964L20.81 4.98185C21.2169 5.21678 21.5673 5.53593 21.8386 5.91661C21.902 5.9787 21.9581 6.05034 22.0047 6.13092C22.0451 6.20076 22.0762 6.27344 22.0982 6.34752C22.3259 6.80121 22.4454 7.30254 22.4459 7.81194L22.4459 7.81296V16.9L22.4459 16.901C22.4453 17.4748 22.2938 18.0383 22.0067 18.535C21.7196 19.0318 21.3069 19.4443 20.81 19.7311L20.8061 19.7333L12.8588 24.2747L12.8567 24.2759C12.5038 24.4793 12.1173 24.6143 11.7175 24.6754C11.5715 24.7586 11.4027 24.8062 11.2227 24.8062C11.0426 24.8062 10.8736 24.7586 10.7277 24.6753C10.3281 24.6141 9.9419 24.4792 9.58922 24.2759L9.58706 24.2747L1.63974 19.7333L1.63588 19.7311C1.139 19.4443 0.7263 19.0318 0.439172 18.535C0.152044 18.0383 0.000589013 17.4748 0 16.901V16.9V7.81296V7.81194C0.000522776 7.30271 0.119888 6.80156 0.347474 6.34799C0.369496 6.27375 0.400551 6.2009 0.441033 6.13092C0.487723 6.05021 0.543966 5.97847 0.607507 5.9163C0.878739 5.53576 1.2291 5.21672 1.63588 4.98186L1.63974 4.97964L1.63974 4.97964L9.58706 0.438333L9.58912 0.43714ZM12.2227 22.3347L19.81 17.9991L19.8118 17.9981C20.0041 17.8866 20.1639 17.7266 20.2752 17.5341C20.3868 17.3411 20.4457 17.122 20.4459 16.899V8.18793L12.2227 12.9448V22.3347ZM10.2227 12.9445V22.3344L2.63588 17.9991L2.63413 17.9981C2.44177 17.8866 2.28198 17.7266 2.17071 17.5341C2.05917 17.3412 2.00031 17.1223 2 16.8994V8.18799L10.2227 12.9445ZM11.8627 2.1726L19.4024 6.48102L11.2229 11.2126L3.04341 6.48104L10.5832 2.1726L10.5832 2.17261L10.5871 2.17038C10.7804 2.05876 10.9997 2 11.2229 2C11.4462 2 11.6655 2.05876 11.8588 2.17038L11.8588 2.17039L11.8627 2.1726Z" fill="#181B1B"/>
</svg>
