<svg width="22" height="26" viewBox="0 0 22 26" fill="none" xmlns="http://www.w3.org/2000/svg">
<path d="M1 10.798C1 9.91173 1.39184 9.07086 2.07042 8.50084L9.07043 2.62084C10.1861 1.68366 11.8139 1.68366 12.9296 2.62084L19.9296 8.50085C20.6082 9.07086 21 9.91173 21 10.798V22.6C21 23.2365 20.7659 23.847 20.3491 24.2971C19.9324 24.7471 19.3671 25 18.7778 25H3.22222C2.63285 25 2.06762 24.7471 1.65087 24.2971C1.23413 23.847 1 23.2365 1 22.6V10.798Z" fill="white" stroke="#696D6D" stroke-width="2" stroke-linecap="round" stroke-linejoin="round"/>
<path d="M8 19V13C8 12.4477 8.44772 12 9 12H13C13.5523 12 14 12.4477 14 13V19" fill="white"/>
<path d="M8 19V13C8 12.4477 8.44772 12 9 12H13C13.5523 12 14 12.4477 14 13V19" stroke="#696D6D" stroke-width="2" stroke-linecap="round" stroke-linejoin="round"/>
</svg>
