<svg width="20" height="24" viewBox="0 0 20 24" fill="none" xmlns="http://www.w3.org/2000/svg">
<path d="M0 9.79796C0 8.91173 0.391837 8.07086 1.07042 7.50084L8.07043 1.62084C9.18612 0.683662 10.8139 0.683663 11.9296 1.62084L18.9296 7.50085C19.6082 8.07086 20 8.91173 20 9.79796V21.6C20 22.2365 19.7659 22.847 19.3491 23.2971C18.9324 23.7471 18.3671 24 17.7778 24H2.22222C1.63285 24 1.06762 23.7471 0.650874 23.2971C0.234126 22.847 0 22.2365 0 21.6V9.79796Z" fill="black"/>
<path d="M7 18V12C7 11.4477 7.44772 11 8 11H12C12.5523 11 13 11.4477 13 12V18" fill="white"/>
</svg>
