<svg width="26" height="26" viewBox="0 0 26 26" fill="none" xmlns="http://www.w3.org/2000/svg">
<path fill-rule="evenodd" clip-rule="evenodd" d="M12.5081 0C15.8514 0 18.9934 1.29986 21.3534 3.66103C26.2317 8.53929 26.2317 16.4758 21.3534 21.3541C18.962 23.7466 15.742 25.0128 12.4801 25.0128C10.702 25.0128 8.91219 24.6369 7.23761 23.8618C6.7442 23.664 6.28221 23.4778 5.95055 23.4778C5.56886 23.4802 5.05566 23.657 4.55992 23.8281C3.54284 24.1772 2.27672 24.6124 1.33994 23.6791C0.406643 22.7447 0.837215 21.4821 1.184 20.4661C1.35507 19.9657 1.53079 19.4491 1.53079 19.0581C1.53079 18.7369 1.37601 18.3272 1.13862 17.7372C-1.04101 13.03 -0.0332388 7.35697 3.66386 3.66219C6.02387 1.30103 9.16472 0 12.5081 0ZM12.5092 1.74556C9.63136 1.74556 6.92807 2.86505 4.8974 4.89689C1.71582 8.07614 0.850016 12.9579 2.74104 17.046C3.01335 17.7198 3.27635 18.3761 3.27635 19.0581C3.27635 19.7388 3.04244 20.4243 2.83647 21.0294C2.66657 21.5274 2.40939 22.2792 2.57463 22.4445C2.73639 22.612 3.4928 22.3479 3.99203 22.1768C4.59134 21.972 5.27095 21.7369 5.94473 21.7323C6.61968 21.7323 7.25623 21.9883 7.93002 22.2594C12.0577 24.1679 16.9395 23.2998 20.1199 20.1205C24.3162 15.9219 24.3162 9.09206 20.1199 4.89572C18.088 2.86389 15.3859 1.74556 12.5092 1.74556ZM17.1023 11.8264C17.7446 11.8264 18.266 12.3466 18.266 12.9901C18.266 13.6337 17.7446 14.1538 17.1023 14.1538C16.4599 14.1538 15.9339 13.6337 15.9339 12.9901C15.9339 12.3466 16.4494 11.8264 17.0918 11.8264H17.1023ZM12.4372 11.8264C13.0795 11.8264 13.6009 12.3466 13.6009 12.9901C13.6009 13.6337 13.0795 14.1538 12.4372 14.1538C11.7948 14.1538 11.2688 13.6337 11.2688 12.9901C11.2688 12.3466 11.7832 11.8264 12.4267 11.8264H12.4372ZM7.77164 11.8264C8.41401 11.8264 8.93535 12.3466 8.93535 12.9901C8.93535 13.6337 8.41401 14.1538 7.77164 14.1538C7.12927 14.1538 6.60328 13.6337 6.60328 12.9901C6.60328 12.3466 7.1188 11.8264 7.76117 11.8264H7.77164Z" fill="#696D6D"/>
</svg>
