<svg width="26" height="27" viewBox="0 0 26 27" fill="none" xmlns="http://www.w3.org/2000/svg">
<path fill-rule="evenodd" clip-rule="evenodd" d="M13.3786 0C14.3116 0 15.2185 0.38309 15.8687 1.04894C16.5176 1.71869 16.8759 2.63732 16.8485 3.56899C16.8511 3.77877 16.9202 4.02114 17.0453 4.23353C17.2525 4.58535 17.5795 4.83292 17.9678 4.93456C18.3561 5.03098 18.7627 4.97886 19.108 4.77429C20.7759 3.82178 22.8985 4.3925 23.851 6.04734L24.6628 7.45331C24.6836 7.4911 24.7019 7.52758 24.7175 7.56537C25.5801 9.19545 25.0042 11.2477 23.4015 12.1846C23.1682 12.3188 22.9793 12.5064 22.849 12.7332C22.647 13.0837 22.591 13.5007 22.6926 13.8837C22.7969 14.2746 23.0457 14.5991 23.3962 14.7998C24.1872 15.2545 24.7775 16.0207 25.0133 16.9055C25.2492 17.7889 25.1202 18.7479 24.6602 19.5389L23.795 20.98C22.8425 22.6166 20.7198 23.1834 19.0689 22.2296C18.8487 22.1032 18.5946 22.0342 18.3418 22.0277H18.334C17.9574 22.0277 17.5704 22.1879 17.289 22.4681C17.0036 22.7534 16.8472 23.1339 16.8498 23.5379C16.8407 25.452 15.2836 27 13.3786 27H11.7459C9.83175 27 8.27463 25.4442 8.27463 23.53C8.27203 23.2942 8.20427 23.0492 8.07788 22.8368C7.8733 22.4798 7.54233 22.2244 7.16054 22.1228C6.78136 22.0211 6.3657 22.0772 6.02431 22.2752C5.20601 22.7313 4.24307 22.842 3.36222 22.5945C2.48268 22.3456 1.72302 21.741 1.27738 20.9396L0.462991 19.5363C-0.489521 17.884 0.0772952 15.7666 1.72693 14.8128C2.19471 14.5431 2.48529 14.0401 2.48529 13.5007C2.48529 12.9612 2.19471 12.4569 1.72693 12.1872C0.0759922 11.2282 -0.489521 9.10555 0.461688 7.45331L1.34514 6.00304C2.28462 4.36905 4.40855 3.79311 6.0647 4.74432C6.29012 4.87853 6.53509 4.94629 6.78397 4.94889C7.59576 4.94889 8.27463 4.27914 8.28766 3.45562C8.28245 2.54742 8.64078 1.67569 9.2936 1.01766C9.94902 0.360938 10.8194 0 11.7459 0H13.3786ZM13.3786 1.95454H11.7459C11.342 1.95454 10.9641 2.1122 10.6787 2.39626C10.3947 2.68163 10.2396 3.06081 10.2422 3.46475C10.2148 5.36977 8.65772 6.90343 6.77224 6.90343C6.16764 6.89692 5.58519 6.73404 5.07961 6.43174C4.36946 6.0278 3.44171 6.27668 3.02604 6.99985L2.14389 8.45012C1.73996 9.15115 1.98753 10.0776 2.7068 10.4959C3.77398 11.1135 4.43983 12.2654 4.43983 13.5007C4.43983 14.7359 3.77398 15.8865 2.7042 16.5054C1.98883 16.9198 1.74126 17.841 2.15562 18.5577L2.97783 19.9754C3.1811 20.3415 3.51337 20.6061 3.89777 20.7142C4.28086 20.821 4.70304 20.7754 5.05485 20.58C5.57216 20.2764 6.17415 20.1187 6.77876 20.1187C7.07715 20.1187 7.37554 20.1565 7.66742 20.2347C8.54827 20.4718 9.31314 21.0608 9.7666 21.8517C10.0611 22.3482 10.224 22.928 10.2292 23.5196C10.2292 24.3666 10.9094 25.0455 11.7459 25.0455H13.3786C14.2112 25.0455 14.8914 24.3705 14.8953 23.5379C14.8901 22.6179 15.2497 21.7436 15.9078 21.0856C16.5567 20.4367 17.4636 20.0471 18.3705 20.0731C18.9647 20.0874 19.5367 20.2477 20.041 20.5344C20.7667 20.9501 21.6932 20.7025 22.1128 19.9858L22.978 18.5434C23.1708 18.2111 23.2269 17.7941 23.1239 17.4097C23.0223 17.0253 22.7669 16.6918 22.4229 16.495C21.6176 16.0311 21.043 15.2832 20.8045 14.3867C20.5687 13.5072 20.6977 12.5468 21.1576 11.7559C21.4573 11.2347 21.8965 10.7956 22.4229 10.4933C23.1291 10.0802 23.3767 9.15636 22.9662 8.43709C22.9493 8.40843 22.9337 8.37846 22.9206 8.34718L22.1571 7.02331C21.7414 6.30013 20.8163 6.05125 20.0905 6.46431C19.306 6.92819 18.3731 7.0611 17.4766 6.82525C16.5814 6.59331 15.8309 6.02649 15.3631 5.22644C15.0634 4.72607 14.9005 4.14362 14.8953 3.55075C14.907 3.10511 14.7507 2.70508 14.4666 2.4119C14.1839 2.12002 13.7864 1.95454 13.3786 1.95454ZM12.568 9.08743C15.0007 9.08743 16.98 11.068 16.98 13.5008C16.98 15.9335 15.0007 17.9115 12.568 17.9115C10.1352 17.9115 8.15593 15.9335 8.15593 13.5008C8.15593 11.068 10.1352 9.08743 12.568 9.08743ZM12.568 11.042C11.2128 11.042 10.1105 12.1456 10.1105 13.5008C10.1105 14.8559 11.2128 15.957 12.568 15.957C13.9231 15.957 15.0255 14.8559 15.0255 13.5008C15.0255 12.1456 13.9231 11.042 12.568 11.042Z" fill="#696D6D"/>
</svg>
