<svg width="34" height="34" viewBox="0 0 34 34" fill="none" xmlns="http://www.w3.org/2000/svg">
<circle cx="16.65" cy="16.65" r="16.65" fill="white"/>
<path fill-rule="evenodd" clip-rule="evenodd" d="M14.77 10.1331C14.8553 10.0479 14.9709 10 15.0914 10H18.0005C18.1211 10 18.2367 10.0479 18.3219 10.1331C18.4072 10.2184 18.4551 10.334 18.4551 10.4545V10.9091H14.6369V10.4545C14.6369 10.334 14.6848 10.2184 14.77 10.1331ZM20.4551 10.4545V10.9091H21.6369L21.6444 10.9091H23.0909C23.6432 10.9091 24.0909 11.3568 24.0909 11.9091C24.0909 12.4614 23.6432 12.9091 23.0909 12.9091H22.6369V22.0909C22.6369 22.7419 22.3783 23.3662 21.918 23.8265C21.4577 24.2868 20.8333 24.5455 20.1824 24.5455H12.9096C12.2586 24.5455 11.6343 24.2868 11.174 23.8265C10.7137 23.3662 10.4551 22.7419 10.4551 22.0909V12.9091H10C9.44772 12.9091 9 12.4614 9 11.9091C9 11.3568 9.44772 10.9091 10 10.9091H11.4475L11.4551 10.9091H12.6369V10.4545C12.6369 9.80356 12.8955 9.17924 13.3558 8.71892C13.8161 8.2586 14.4405 8 15.0914 8H18.0005C18.6515 8 19.2758 8.2586 19.7362 8.71892C20.1965 9.17924 20.4551 9.80356 20.4551 10.4545ZM12.4551 12.9091V22.0909C12.4551 22.2115 12.503 22.3271 12.5882 22.4123C12.6735 22.4976 12.7891 22.5455 12.9096 22.5455H20.1824C20.3029 22.5455 20.4185 22.4976 20.5038 22.4123C20.589 22.3271 20.6369 22.2115 20.6369 22.0909V12.9091H12.4551ZM15.0918 14.5455C15.6441 14.5455 16.0918 14.9932 16.0918 15.5455V19.9091C16.0918 20.4614 15.6441 20.9091 15.0918 20.9091C14.5395 20.9091 14.0918 20.4614 14.0918 19.9091V15.5455C14.0918 14.9932 14.5395 14.5455 15.0918 14.5455ZM19 15.5455C19 14.9932 18.5523 14.5455 18 14.5455C17.4477 14.5455 17 14.9932 17 15.5455V19.9091C17 20.4614 17.4477 20.9091 18 20.9091C18.5523 20.9091 19 20.4614 19 19.9091V15.5455Z" fill="#FF4747"/>
</svg>
