<svg width="62" height="62" viewBox="0 0 62 62" fill="none" xmlns="http://www.w3.org/2000/svg">
<circle cx="31.5" cy="30.5" r="30.5" fill="white"/>
<g clip-path="url(#clip0_8945_9032)">
<path d="M50.9871 26.4885C50.6679 26.2139 50.26 25.9483 49.8078 25.7357C50.8718 23.6191 50.0916 20.7939 48.07 19.3857C46.7844 18.4913 45.1796 18.2964 43.6989 18.6595C43.557 17.9599 43.1581 17.3311 42.4044 17.03C41.8724 16.8174 41.3493 16.8263 40.8528 16.9857C40.3563 15.1081 39.2214 13.452 37.3417 12.6904C35.2049 11.8225 32.944 12.6195 31.286 14.0897C30.4703 13.2306 29.424 12.6549 28.2359 13.0889C27.172 13.4786 26.3917 14.2402 25.8952 15.1967C24.317 14.7008 22.4551 14.9576 21.2315 16.0646C19.6888 17.4639 18.9795 19.368 18.8553 21.3518C18.2701 21.0242 17.6052 20.9622 16.9579 21.4581C16.1068 22.1135 16.0536 23.0965 16.3639 24.0087C16.3195 23.9999 16.2663 23.991 16.222 23.991C14.963 23.929 13.6153 24.9121 12.8617 25.8331C11.5849 27.4007 11.4164 29.4111 12.1789 31.1115C10.1219 33.5293 10.8047 37.5854 13.7483 39.0113C15.7876 39.9944 18.2701 39.8172 20.008 38.6216C20.3715 39.3656 20.9655 39.9855 21.7458 40.3486C23.058 40.9597 24.2727 40.4637 25.0263 39.4895C25.3632 40.9331 27.4734 41.5796 28.7945 41.4734C29.8674 41.3848 30.7806 40.8003 31.4988 40.0121C32.7401 40.8623 34.4247 41.1811 35.8876 40.9951C37.0314 40.8446 38.2372 40.1538 39.0175 39.1884C39.2391 39.711 39.8066 40.0298 40.4006 39.9501C40.9769 39.8704 41.5532 39.401 41.8015 38.8342C42.9187 39.3921 44.3993 39.4718 45.4278 39.1264C46.4652 38.7899 47.2454 38.108 47.804 37.2666C48.203 37.2666 48.602 37.2046 49.0187 37.0629C51.0846 36.3633 52.5564 34.0518 52.9111 31.9971C53.2569 29.969 52.5564 27.8347 50.9871 26.4885Z" fill="#82C443"/>
<path d="M52.9126 31.9873C52.9569 31.757 52.9746 31.5179 52.9924 31.2877C51.5826 32.8198 49.0557 31.881 49.0557 31.881C49.0557 31.881 48.3287 34.9365 44.7023 34.8922C41.0848 34.8479 40.2603 29.4721 40.2603 29.4721C40.2603 29.4721 39.0367 33.0323 35.9246 31.5179C32.8125 30.0123 32.8125 26.1333 32.8125 26.1333C32.8125 26.1333 31.7219 28.2677 29.461 28.3562C27.2001 28.4448 26.0297 24.4683 26.0297 24.4683C26.0297 24.4683 22.2615 25.5753 21.2153 21.4572C20.5237 18.7206 22.3502 16.3294 23.7156 14.9832C22.7935 15.0895 21.9157 15.4437 21.233 16.0637C19.6903 17.463 18.981 19.3671 18.8568 21.3509C18.2717 21.0232 17.6067 20.9612 16.9594 21.4572C16.1083 22.1125 16.0551 23.0956 16.3654 24.0078C16.3211 23.9989 16.2679 23.9901 16.2235 23.9901C14.9645 23.9281 13.6168 24.9111 12.8632 25.8322C11.5864 27.3997 11.418 29.4101 12.1805 31.1105C10.1235 33.5283 10.8062 37.5845 13.7498 39.0103C15.7891 39.9934 18.2717 39.8163 20.0095 38.6207C20.373 39.3646 20.967 39.9845 21.7473 40.3477C23.0595 40.9587 24.2742 40.4628 25.0278 39.4886C25.3648 40.9322 27.4749 41.5787 28.796 41.4724C29.8689 41.3838 30.7821 40.7993 31.5003 40.0111C32.7416 40.8613 34.4262 41.1801 35.8891 40.9942C37.0329 40.8436 38.2387 40.1528 39.019 39.1875C39.2406 39.71 39.8081 40.0288 40.4021 39.9491C40.9784 39.8694 41.5547 39.4 41.803 38.8332C42.9202 39.3912 44.4008 39.4709 45.4293 39.1255C46.4667 38.7889 47.247 38.107 47.8055 37.2657C48.2045 37.2657 48.6035 37.2037 49.0202 37.062C51.0861 36.3535 52.5579 34.042 52.9126 31.9873Z" fill="#76A541"/>
<path d="M26.9697 50.8692H38.4427C36.0754 48.9828 34.7277 46.1665 34.2312 43.1819C33.779 40.4719 33.4953 36.3094 35.57 34.1485C36.8025 32.8732 38.5757 32.9883 40.1983 33.0769C41.6612 33.1477 43.1153 33.1123 44.5517 32.8023C46.9545 32.2887 49.375 31.0931 49.9158 28.4982C49.9602 28.2679 49.6232 28.1705 49.5612 28.4007C48.6036 32.023 44.3389 32.2444 40.9963 32.147C41.3066 32.0141 41.608 31.8458 41.8829 31.6333C43.0267 30.7299 43.2927 29.1978 44.6581 28.507C44.7379 28.4627 44.6847 28.3387 44.596 28.3565C43.5675 28.6487 42.9823 29.4989 42.2287 30.1986C41.0051 31.3499 39.622 31.6156 38.0172 31.837C36.7404 32.0141 35.4814 32.2178 34.3642 32.8909C34.178 32.9972 34.0096 33.13 33.8411 33.2629C33.3712 31.9255 33.0786 30.6591 33.8056 29.2509C34.5859 27.7454 35.9779 27.0369 37.5827 26.7269C39.5067 26.3549 41.3775 26.0273 42.2021 24.0434C42.2464 23.9283 42.078 23.8752 42.0159 23.9637C40.9697 25.4162 38.9215 25.4782 37.3256 25.7793C37.2458 25.797 37.1749 25.8147 37.0951 25.8324C37.2015 25.7173 37.3078 25.5933 37.4054 25.4604C38.3363 24.2206 38.4959 22.7238 38.7353 21.2448C38.7442 21.1651 38.6289 21.1297 38.6112 21.2094C38.1413 23.149 37.2103 24.7519 35.5878 25.9475C34.5327 26.718 33.3534 27.4 32.6264 28.5159C31.8905 29.6318 31.7752 30.9514 31.8373 32.2532C31.855 32.758 31.8816 33.2274 31.8905 33.688C31.8018 33.5905 31.7043 33.502 31.6156 33.4134C30.33 32.1204 28.9114 30.9248 28.0514 29.2775C26.9785 27.2229 27.5371 25.6021 28.7873 23.8397C29.6473 22.6353 30.2768 21.3511 30.0906 19.8367C30.0729 19.7127 29.8867 19.7038 29.8867 19.8367C29.9665 21.9002 27.9095 23.0958 26.9874 24.7431C26.3667 25.859 26.2515 27.0634 26.5352 28.2502C24.9925 26.4258 23.627 24.4597 23.2635 22.1393C23.2547 22.0685 23.1305 22.0862 23.1305 22.157C23.299 25.7084 25.1521 28.2856 27.413 30.9071C27.8474 31.4119 28.2819 31.9167 28.6986 32.4392C28.7429 32.6429 28.7961 32.8377 28.8405 33.0326C28.7695 32.9617 28.6897 32.8909 28.6099 32.8289C28.0336 32.3684 27.5282 31.9433 26.8455 31.713C26.4731 31.4916 25.9944 31.4385 25.5688 31.3056C22.3326 30.296 18.6885 32.7315 16.2148 29.5078C16.0995 29.3661 15.8778 29.4458 15.9133 29.6318C16.2857 31.4827 18.5555 31.9875 20.178 32.0053C20.6302 32.0053 21.0913 31.9787 21.5434 31.9433C21.5257 31.9521 21.508 31.961 21.4902 31.9698C20.5859 32.4746 19.7968 33.1566 18.8924 33.6614C17.8107 34.2548 16.6581 34.6976 15.4611 34.9987C15.399 35.0164 15.4168 35.105 15.4788 35.105C16.9595 35.0518 18.3515 34.7507 19.6726 34.0511C21.3395 33.1743 22.7227 31.9078 24.7531 32.2355C25.7904 32.4038 26.7125 32.882 27.4839 33.5463C27.9361 34.0334 28.3174 34.5824 28.6099 35.1758C29.9665 37.8593 29.8867 41.3309 29.4966 44.2447C29.1685 46.7687 28.3085 48.8765 26.9697 50.8692Z" fill="#7E502F"/>
<path d="M29.5236 44.2895C29.9048 41.3758 29.9846 37.9041 28.6369 35.2206C28.3355 34.6361 27.9631 34.0782 27.5109 33.5911C26.7307 32.9269 25.8085 32.4486 24.78 32.2804C22.7585 31.9438 21.3665 33.2191 19.6996 34.0959C18.3785 34.7867 16.9865 35.0967 15.5058 35.1498C15.4881 35.1498 15.4704 35.1409 15.4615 35.1232C16.4102 34.9195 18.281 34.4059 18.946 34.087C19.8503 33.6442 22.1911 31.9615 22.1911 31.9615H21.5527L21.4552 31.997C21.0384 32.0324 20.6306 32.0589 20.2139 32.0501C18.5913 32.0324 16.3215 31.5276 15.9491 29.6766C15.9314 29.6057 15.958 29.5526 15.9935 29.5172C16.2949 30.1371 16.818 30.8811 17.6515 31.191C19.2031 31.7667 21.3133 31.6781 22.4305 31.5364C23.5388 31.3947 25.2854 31.5807 26.3671 32.0944C27.4577 32.608 29.2842 33.9453 29.2842 33.9453L28.8674 33.0597C28.8142 32.8649 28.5128 32.5549 28.3798 32.3246C27.9365 31.6073 27.8744 31.4479 27.44 30.943C25.179 28.3216 23.326 25.7533 23.1575 22.193C23.1575 22.131 23.2373 22.1133 23.2728 22.1487C23.2816 22.8307 23.3969 23.6632 23.7427 24.4779C24.5318 26.3289 27.2006 29.712 27.2006 29.712L26.5711 28.295C26.2873 27.1083 26.4026 25.895 27.0232 24.7879C27.9453 23.1406 30.0023 21.945 29.9225 19.8815C29.9225 19.8284 29.9491 19.8018 29.9846 19.793C29.8516 20.9443 29.559 22.4321 28.8763 23.2203C27.6705 24.6108 26.8459 26.3201 26.9346 27.6219C27.0232 28.915 28.3975 31.1379 29.2487 32.0678C30.357 33.2988 31.882 36.0354 31.9086 37.355C31.9263 38.2672 30.6939 46.2379 31.6604 48.6911C31.9529 49.435 32.3253 50.2055 32.7066 50.914H26.9966C28.3355 48.8948 29.1955 46.7958 29.5236 44.2895ZM32.6711 32.2272C32.5559 31.0936 32.7864 29.8449 33.4514 28.4987C34.1252 27.1525 36.4393 25.7887 37.3437 24.9119C37.9998 24.2654 38.4077 22.3347 38.5761 21.334C38.0973 23.2115 37.1664 24.7791 35.5882 25.9481C34.5331 26.7186 33.3538 27.4005 32.6268 28.5164C31.8909 29.6323 31.7756 30.9519 31.8377 32.2538C31.8554 32.7586 31.882 33.228 31.8909 33.6885L32.6977 34.8398C32.6977 34.8487 32.7864 33.3608 32.6711 32.2272ZM49.5704 28.4013C48.6129 32.0235 44.3481 32.2449 41.0055 32.1475L40.1189 32.4398C40.1189 32.4398 44.0555 32.67 45.4032 32.2981C46.7509 31.9261 48.5597 30.6774 49.0916 30.0308C49.4729 29.5703 49.7389 28.7467 49.8541 28.3127C49.7566 28.2419 49.6059 28.2596 49.5704 28.4013ZM37.1043 25.833L36.4305 26.4352C36.4305 26.4352 39.6756 25.9215 40.5533 25.4433C41.1651 25.1067 41.8478 24.3982 42.2113 23.9908C42.1936 23.92 42.0695 23.9023 42.0251 23.9643C40.9789 25.4167 38.9308 25.4787 37.3348 25.7798C37.255 25.7975 37.1752 25.8241 37.1043 25.833ZM43.497 29.3135C43.7895 28.9327 44.2861 28.6493 44.6939 28.4633C44.7117 28.4101 44.6585 28.3393 44.5964 28.357C43.5679 28.6493 42.9827 29.4995 42.2291 30.1991C41.0055 31.3504 39.6224 31.6161 38.0175 31.8375C36.7408 32.0147 35.4818 32.2184 34.3646 32.8914C34.1784 32.9977 34.0099 33.1306 33.8415 33.2634C34.072 33.9719 33.8947 34.6804 33.8947 34.6804C34.7015 32.6169 39.711 31.997 40.5711 31.8287C41.4311 31.6781 42.9384 30.0308 43.497 29.3135Z" fill="#6A4024"/>
<path d="M34.8606 27.6572C34.8606 27.6484 34.8518 27.6395 34.8518 27.6307C34.2843 26.0542 32.6263 25.0181 30.9151 25.6291C29.5497 26.1162 29.1064 27.3738 29.1684 28.3923C28.5744 27.5687 27.4306 26.8779 26.0652 27.3561C24.3451 27.9672 23.7245 29.8182 24.283 31.3946C24.283 31.4035 24.2919 31.4123 24.2919 31.4212C24.4072 31.7666 25.6573 35.2559 31.9613 36.2213C36.2349 31.5009 34.9936 28.0026 34.8606 27.6572Z" fill="#EE5282"/>
<path d="M29.6288 35.6985C30.3204 35.911 31.0918 36.097 31.9607 36.2298C36.2254 31.5006 34.993 28.0023 34.86 27.6658C34.86 27.6569 34.8511 27.6481 34.8511 27.6392C34.7802 27.4355 34.6915 27.2495 34.5852 27.0724C34.3546 31.6688 31.5883 34.3611 29.6288 35.6985Z" fill="#EE3D7E"/>
<path d="M24.699 31.6606C24.699 31.6606 23.5907 28.6671 26.7028 27.5158C26.7028 27.5158 24.7611 28.7911 24.699 31.6606Z" fill="#EF6C9D"/>
<path d="M44.275 38.5061L43.2376 40.1799L36.3573 35.8757L37.3947 34.2019L44.275 38.5061Z" fill="#5E7B80"/>
<path opacity="0.18" d="M36.4639 35.9468L40.507 36.1505L37.5013 34.273C37.4924 34.2641 37.0136 35.2649 36.4639 35.9468Z" fill="#010101"/>
<path opacity="0.2" d="M30.4256 38.4006C34.6417 38.4006 38.0595 34.9589 38.0595 30.7133C38.0595 26.4678 34.6417 23.0261 30.4256 23.0261C26.2095 23.0261 22.7916 26.4678 22.7916 30.7133C22.7916 34.9589 26.2095 38.4006 30.4256 38.4006Z" fill="#F3F3F3"/>
<path opacity="0.18" d="M33.2999 36.7262C31.9256 37.1247 30.507 37.2133 29.0884 37.0273C27.7318 36.8502 26.2777 36.4339 25.1428 35.6457C24.6729 35.318 24.2385 34.9284 23.8838 34.4767C24.8768 36.1417 26.4994 37.4347 28.512 37.9572C31.5887 38.7543 34.7008 37.5498 36.5095 35.1498C35.5697 35.8849 34.4348 36.3985 33.2999 36.7262Z" fill="#010101"/>
<path d="M49.0997 42.1107L48.6563 42.8369C48.3638 43.3152 47.7431 43.4569 47.2643 43.1646L40.2156 38.7542C40.1358 38.7099 40.118 38.6036 40.1624 38.5239L41.4923 36.3541C41.5367 36.2744 41.643 36.2478 41.7228 36.301L48.7716 40.7114C49.2504 41.0037 49.4011 41.6325 49.0997 42.1107Z" fill="#163E4A"/>
<path d="M42.9727 37.0098L41.4654 39.463L41.1728 39.277L42.6801 36.8238L42.9727 37.0098Z" fill="#F7D77F"/>
<path d="M43.6635 37.4611L42.1562 39.9143L41.8636 39.7283L43.3709 37.284L43.6635 37.4611Z" fill="#F7D77F"/>
<path d="M37.3775 35.0525C35.0013 38.9139 29.9474 40.1095 26.1083 37.7094C22.278 35.3094 21.0899 30.217 23.4661 26.3556C25.8423 22.4943 30.8961 21.2987 34.7353 23.6987C38.5744 26.0988 39.7536 31.1912 37.3775 35.0525ZM24.1045 26.763C21.9411 30.2701 23.0228 34.902 26.5073 37.0806C29.9918 39.2593 34.5845 38.17 36.7479 34.6629C38.9113 31.1558 37.8296 26.5239 34.3452 24.3453C30.8607 22.1666 26.2679 23.2471 24.1045 26.763Z" fill="#163E4A"/>
<path opacity="0.61" d="M31.2589 24.1151C30.1683 23.8406 28.9714 23.9911 27.9518 24.4428C27.0651 24.8325 26.2051 25.5764 25.9568 26.5418C25.9214 26.6923 26.0987 26.8606 26.2228 26.7277C26.8169 26.1078 27.4552 25.5676 28.2532 25.231C29.1664 24.8413 30.1329 24.8856 31.0905 24.9388C31.5426 24.9565 31.7288 24.2391 31.2589 24.1151Z" fill="white"/>
<path d="M30.3822 38.3027C26.2239 38.3027 22.8369 34.893 22.8369 30.6951C22.8369 26.4972 26.2239 23.0876 30.3822 23.0876C34.5405 23.0876 37.9275 26.4972 37.9275 30.6951C37.9275 34.893 34.5494 38.3027 30.3822 38.3027ZM30.3822 23.2381C26.3036 23.2381 22.9788 26.5858 22.9788 30.6951C22.9788 34.8045 26.3036 38.1521 30.3822 38.1521C34.4607 38.1521 37.7856 34.8045 37.7856 30.6951C37.7856 26.5858 34.4696 23.2381 30.3822 23.2381Z" fill="#BA666E"/>
</g>
<defs>
<clipPath id="clip0_8945_9032">
<rect width="42" height="38.5603" fill="white" transform="translate(11 12.3271)"/>
</clipPath>
</defs>
</svg>
