<svg width="14" height="14" viewBox="0 0 14 14" fill="none" xmlns="http://www.w3.org/2000/svg">
<path fill-rule="evenodd" clip-rule="evenodd" d="M7 14C3.13401 14 0 10.866 0 7C0 3.13401 3.13401 0 7 0C10.866 0 14 3.13401 14 7C14 10.866 10.866 14 7 14ZM7 13.3C10.4794 13.3 13.3 10.4794 13.3 7C13.3 3.52061 10.4794 0.7 7 0.7C3.52061 0.7 0.7 3.52061 0.7 7C0.7 10.4794 3.52061 13.3 7 13.3ZM6.99171 11.9C4.49694 11.9 2.12922 9.50725 2.12922 7.77802C2.12922 6.78561 4.28552 7.98 6.99171 7.98C9.69791 7.98 11.878 6.78723 11.8708 7.77802C11.8585 9.45375 9.48649 11.9 6.99171 11.9ZM6.99171 9.695C9.31131 9.695 10.9159 8.79828 10.9159 8.1516C10.9159 7.50492 9.31131 8.53718 6.99171 8.53718C4.67212 8.53718 3.09413 7.62882 3.09413 8.1516C3.09413 8.67438 4.67212 9.695 6.99171 9.695ZM4.89125 5.75748C4.43217 5.75748 4.06 5.38532 4.06 4.92623C4.06 4.46715 4.43217 4.09498 4.89125 4.09498C5.35034 4.09498 5.7225 4.46715 5.7225 4.92623C5.7225 5.38532 5.35034 5.75748 4.89125 5.75748ZM9.09125 5.75748C8.63217 5.75748 8.26 5.38532 8.26 4.92623C8.26 4.46715 8.63217 4.09498 9.09125 4.09498C9.55034 4.09498 9.9225 4.46715 9.9225 4.92623C9.9225 5.38532 9.55034 5.75748 9.09125 5.75748Z" fill="#50555C"/>
</svg>
