<svg width="9" height="11" viewBox="0 0 9 11" fill="none" xmlns="http://www.w3.org/2000/svg">
<path fill-rule="evenodd" clip-rule="evenodd" d="M6.57143 1.21429C6.57143 0.938152 6.34757 0.714294 6.07143 0.714294C5.79529 0.714294 5.57143 0.938152 5.57143 1.21429V1.57144H3.14286V1.21429C3.14286 0.938152 2.919 0.714294 2.64286 0.714294C2.36671 0.714294 2.14286 0.938152 2.14286 1.21429V1.57144H1.35714C0.607614 1.57144 0 2.17905 0 2.92858V4.64287V8.92858C0 9.67811 0.607614 10.2857 1.35714 10.2857H7.35714C8.10667 10.2857 8.71429 9.67811 8.71429 8.92858V4.64287V2.92858C8.71429 2.17905 8.10667 1.57144 7.35714 1.57144H6.57143V1.21429ZM7.71429 4.14287V2.92858C7.71429 2.73134 7.55439 2.57144 7.35714 2.57144H6.57143V2.92858C6.57143 3.20472 6.34757 3.42858 6.07143 3.42858C5.79529 3.42858 5.57143 3.20472 5.57143 2.92858V2.57144H3.14286V2.92858C3.14286 3.20472 2.919 3.42858 2.64286 3.42858C2.36671 3.42858 2.14286 3.20472 2.14286 2.92858V2.57144H1.35714C1.1599 2.57144 1 2.73134 1 2.92858V4.14287H7.71429ZM1 5.14287H7.71429V8.92858C7.71429 9.12582 7.55439 9.28572 7.35714 9.28572H1.35714C1.1599 9.28572 1 9.12582 1 8.92858V5.14287Z" fill="#007749"/>
</svg>
