<svg width="15" height="18" viewBox="0 0 15 18" fill="none" xmlns="http://www.w3.org/2000/svg">
<path d="M14 7.34968C14 9.1264 13.4122 10.9781 12.0491 12.7923C11.2567 13.8468 9.84853 15.361 8.80813 16.4442C8.09643 17.1853 6.90357 17.1853 6.19187 16.4442C5.15147 15.361 3.74329 13.8468 2.95094 12.7923C1.58778 10.9781 1 9.1264 1 7.34968C1 3.84285 3.91015 1 7.5 1C11.0899 1 14 3.84285 14 7.34968Z" stroke="#979B9B" stroke-width="1.5"/>
<path d="M10.2857 7.34968C10.2857 8.85261 9.03851 10.071 7.5 10.071C5.96149 10.071 4.71429 8.85261 4.71429 7.34968C4.71429 5.84675 5.96149 4.62839 7.5 4.62839C9.03851 4.62839 10.2857 5.84675 10.2857 7.34968Z" stroke="#979B9B" stroke-width="1.5"/>
</svg>
