<svg width="62" height="62" viewBox="0 0 62 62" fill="none" xmlns="http://www.w3.org/2000/svg">
<circle cx="31.5" cy="30.5" r="30.5" fill="white"/>
<circle cx="31.5" cy="30.5" r="26.5" fill="#D18034"/>
<path fill-rule="evenodd" clip-rule="evenodd" d="M48.4617 31.5135C48.4158 31.7997 48.3715 32.0823 48.3276 32.3621C48.2207 33.0449 48.1162 33.7116 47.9965 34.3761C47.957 34.5982 47.8865 34.8152 47.816 35.0325L47.816 35.0326L47.816 35.0327L47.8159 35.0329L47.8159 35.033L47.8159 35.0331L47.8158 35.0332L47.8158 35.0333L47.8158 35.0335L47.8157 35.0336L47.8157 35.0337L47.8157 35.0338C47.7743 35.161 47.733 35.2884 47.6979 35.4169L47.6836 35.468L47.6745 35.5002C47.5846 35.8157 47.5034 36.101 47.9272 36.304C48.4465 36.5528 48.5028 36.9272 48.1782 37.5871C48.0289 37.8944 47.6243 37.9896 47.2089 37.8468C46.9925 37.771 46.8324 37.7516 46.6723 38.0631C46.05 39.3298 45.2628 40.5084 44.3311 41.5684C44.2915 41.5998 44.2594 41.6398 44.2374 41.6853C44.2154 41.7308 44.204 41.7807 44.204 41.8313C44.204 41.8819 44.2154 41.9318 44.2374 41.9773C44.2594 42.0229 44.2915 42.0628 44.3311 42.0942C44.7638 42.6005 44.7638 42.8299 44.3311 43.2864C43.9503 43.6867 43.5803 43.7192 43.1324 43.3578C42.8965 43.1653 42.7689 43.2021 42.5222 43.3752C41.4403 44.1433 40.3217 44.8898 39.1987 45.5995C39.1782 45.613 39.1587 45.6255 39.1403 45.6372C38.9649 45.7496 38.8932 45.7955 39.0342 46.056C39.0845 46.1455 39.1161 46.2442 39.1273 46.3462C39.1385 46.4482 39.1289 46.5514 39.0992 46.6496C39.0695 46.7478 39.0203 46.839 38.9544 46.9177C38.8886 46.9964 38.8076 47.061 38.7161 47.1076C38.054 47.4127 37.6884 47.3586 37.4547 46.809C37.3097 46.4693 37.1085 46.5039 36.8726 46.5602C36.5034 46.6475 36.1353 46.7407 35.7671 46.834C35.2224 46.972 34.6776 47.11 34.129 47.2288C33.7474 47.2935 33.3604 47.3203 32.9735 47.3089C32.5862 47.3089 32.372 47.4235 32.3872 47.8714C32.4045 48.3626 32.0994 48.592 31.5346 48.5941C31.0089 48.5941 30.6973 48.3626 30.7059 47.8974C30.7146 47.4322 30.5025 47.3565 30.0958 47.3024C29.2573 47.1912 28.426 47.0353 27.5949 46.8794L27.5947 46.8794L27.5946 46.8794L27.5944 46.8793L27.5943 46.8793L27.5941 46.8793L27.594 46.8793L27.5939 46.8792L27.5937 46.8792L27.5936 46.8792L27.5934 46.8792L27.5933 46.8792C27.4062 46.8441 27.2191 46.809 27.0319 46.7744C26.9143 46.7524 26.7988 46.7178 26.6834 46.6831L26.6834 46.6831C26.5376 46.6394 26.3919 46.5956 26.2421 46.5775C26.1753 46.5745 26.1087 46.5877 26.048 46.6159C25.9874 46.6442 25.9344 46.6867 25.8937 46.7398C25.6146 47.3738 25.2836 47.4517 24.6691 47.2331C24.1368 47.0406 24.0416 46.584 24.338 45.9803C24.348 45.9443 24.3538 45.9073 24.3553 45.87C24.1747 45.7651 23.9925 45.6618 23.81 45.5583C23.3562 45.3011 22.9003 45.0427 22.462 44.7556C21.7999 44.3229 21.1638 43.8512 20.5385 43.3557C20.3221 43.1826 20.2204 43.1653 20.0105 43.3405C19.4371 43.8144 18.6798 43.6197 18.4959 42.9078C18.4433 42.7155 18.5549 42.4685 18.6561 42.2446C18.6756 42.2013 18.6947 42.159 18.7122 42.118C18.7426 42.0486 18.829 42.0004 18.9121 41.9542L18.9121 41.9542C18.9533 41.9312 18.9937 41.9087 19.026 41.8843C18.0565 40.7928 17.2278 39.5839 16.5593 38.286C16.4511 38.0696 16.2975 37.8533 15.9578 38.0696C15.6181 38.286 15.2286 38.1497 14.9949 37.7667C14.7612 37.3837 14.798 36.7952 15.0988 36.5572C15.1526 36.515 15.2158 36.475 15.2791 36.4348C15.427 36.3412 15.5754 36.2471 15.6073 36.1244C15.6367 36.0109 15.5753 35.8574 15.5126 35.7004C15.4784 35.6151 15.4439 35.5287 15.4233 35.4472C15.3807 35.2765 15.337 35.1061 15.2933 34.9358C15.1597 34.4151 15.0262 33.895 14.9235 33.37C14.8451 32.9588 14.7981 32.5415 14.7506 32.1202L14.7506 32.1202C14.7286 31.9252 14.7065 31.7294 14.6812 31.5329C14.6441 31.5117 14.604 31.4964 14.5622 31.4875C13.6209 31.3944 13.331 31.0136 13.6209 30.1049C13.6858 29.9015 14.0364 29.6981 14.2701 29.6721C14.5989 29.6288 14.6877 29.5423 14.7374 29.2112C14.9123 28.0955 15.1041 26.9854 15.3015 25.8433C15.3484 25.5723 15.3955 25.2995 15.4428 25.0244C15.2072 24.8569 14.9935 24.6607 14.8067 24.4401C14.547 24.0766 14.8067 23.7174 15.023 23.4405C15.2113 23.2046 15.4774 22.9948 15.8561 23.2414C16.0465 23.3669 16.2434 23.3929 16.423 23.051C17.0882 21.689 17.9419 20.4274 18.9589 19.3034C18.918 19.2207 18.871 19.1411 18.8183 19.0654C18.3271 18.492 18.3163 18.2583 18.7685 17.7909C19.1363 17.4123 19.5518 17.4166 20.043 17.765C20.1087 17.8017 20.1824 17.822 20.2577 17.8243C20.3331 17.8266 20.4078 17.8107 20.4757 17.7779C21.5378 16.8872 22.6995 16.1226 23.9377 15.4995C24.1541 15.3935 24.219 15.3589 24.0913 15.1035C23.8641 14.647 24.0199 14.1796 24.3834 14.0044C25.0456 13.6841 25.3788 13.7425 25.6665 14.3462C25.8205 14.6669 26.0241 14.6089 26.2143 14.5547C26.2486 14.5449 26.2826 14.5353 26.3157 14.528C26.5199 14.4841 26.7241 14.4199 26.9283 14.3558C27.1569 14.284 27.3854 14.2122 27.6139 14.1688C28.4188 14.0195 29.2367 13.894 30.0698 13.8053C30.4874 13.7642 30.7319 13.6776 30.7189 13.1865C30.7016 12.7537 31.0391 12.5157 31.5649 12.5179C32.0907 12.52 32.411 12.7494 32.3958 13.2059C32.3807 13.6625 32.5906 13.7901 33.0038 13.7945C34.2867 13.8172 35.5557 14.064 36.7536 14.5237C36.8699 14.5503 36.9895 14.5597 37.1085 14.5518C37.4374 13.8334 37.8961 13.6041 38.4608 13.8572C38.9412 14.0801 39.0364 14.5431 38.7248 15.1923C38.9483 15.327 39.1733 15.4601 39.3984 15.5932C39.9471 15.9178 40.4968 16.243 41.0292 16.5944C41.3363 16.7959 41.6271 17.0226 41.9183 17.2497L41.9184 17.2497C42.1462 17.4273 42.3744 17.6052 42.6109 17.7715C42.6778 17.8062 42.752 17.8243 42.8273 17.8243C42.9026 17.8243 42.9768 17.8062 43.0437 17.7715C43.511 17.4058 43.9351 17.3993 44.3224 17.7996C44.7898 18.2843 44.7812 18.5158 44.2835 19.0632C44.2272 19.139 44.1773 19.2194 44.1342 19.3034C45.0719 20.3512 45.8718 21.5146 46.5143 22.7654C46.6463 23.0294 46.7826 23.2631 47.1634 23.0056C47.4815 22.7892 47.9013 22.9861 48.1133 23.3583C48.3254 23.7304 48.3016 24.4401 47.9813 24.5289C47.3605 24.7109 47.4781 25.0599 47.5967 25.4123C47.619 25.4787 47.6414 25.5452 47.6589 25.6107C47.7166 25.8415 47.7798 26.0699 47.8428 26.2976C47.957 26.7103 48.0706 27.1211 48.1501 27.5408C48.2363 27.996 48.2876 28.4691 48.3366 28.9203L48.3366 28.9205L48.3366 28.9208L48.3367 28.9211L48.3367 28.9214L48.3367 28.9218C48.3578 29.1157 48.3784 29.3056 48.4011 29.4882C48.5119 29.5393 48.6254 29.5833 48.7368 29.6264C48.9932 29.7257 49.2381 29.8206 49.4116 29.988C49.5386 30.1096 49.5256 30.3971 49.5143 30.6475V30.6475C49.5121 30.6957 49.51 30.7425 49.509 30.7864C49.5068 31.2603 49.3402 31.362 48.4617 31.5135ZM31.5195 41.523C32.9681 41.5281 34.4034 41.2465 35.7426 40.6943C37.0818 40.1422 38.2985 39.3304 39.3225 38.3058C40.3466 37.2811 41.1576 36.064 41.709 34.7244C42.2604 33.3849 42.5412 31.9494 42.5352 30.5008C42.5546 27.4845 41.41 24.8383 39.203 22.7113C37.0825 20.673 34.5574 19.5912 31.5974 19.5782C28.6374 19.5652 26.056 20.6341 23.9074 22.6853C22.8384 23.6742 21.9876 24.8752 21.4093 26.2117C20.8311 27.5481 20.5382 28.9906 20.5493 30.4467C20.5367 31.8959 20.8111 33.3331 21.3566 34.6757C21.9022 36.0183 22.7081 37.2396 23.7279 38.2693C24.7477 39.2989 25.9612 40.1165 27.2985 40.675C28.6357 41.2334 30.0703 41.5216 31.5195 41.523ZM22.7168 27.0591L22.7168 27.059L22.7168 27.059C22.9303 26.5989 23.133 26.1618 23.3703 25.7451C24.3591 24.0141 25.8131 22.7894 27.5853 21.9196C27.814 21.805 28.0522 21.7101 28.2971 21.6362C28.6174 21.541 28.7991 21.608 28.8446 22.0148C28.9473 22.8957 29.073 23.7687 29.1986 24.6411L29.1987 24.6411L29.1987 24.6412L29.1987 24.6413L29.1987 24.6414L29.1987 24.6414L29.1987 24.6415L29.1987 24.6416L29.1987 24.6416L29.1987 24.6417L29.1987 24.6418L29.1987 24.6418C29.2582 25.0549 29.3177 25.4678 29.3747 25.8814C29.4309 26.299 29.4201 26.6171 28.9419 26.9049C28.6167 27.1006 28.3585 27.4105 28.0999 27.7208L28.0999 27.7208C27.9784 27.8667 27.8568 28.0127 27.7281 28.1469C27.7145 28.1611 27.7005 28.1765 27.686 28.1923L27.6859 28.1924C27.6079 28.2777 27.5177 28.3762 27.4338 28.3762C27.017 28.3748 26.6008 28.3473 26.1875 28.294C25.415 28.1923 24.6447 28.0776 23.8744 27.95C23.6371 27.9128 23.3971 27.8724 23.1287 27.8271L23.1286 27.8271C22.9125 27.7906 22.678 27.7511 22.4117 27.7076C22.5186 27.4864 22.6188 27.2703 22.7168 27.0591ZM23.4172 33.2374L23.4139 33.2378L23.4065 33.2387L23.4003 33.2395C23.1134 33.2752 22.8239 33.3112 22.5309 33.348C22.5302 33.4632 22.5432 33.5779 22.5699 33.6899C23.0977 35.0888 23.9239 36.3558 24.9911 37.4029C25.9307 38.2799 27.0275 38.9714 28.2238 39.4412C28.663 39.6186 28.7993 39.5169 28.8448 39.0517C28.9032 38.3485 28.9659 37.6453 29.0611 36.9442C29.0974 36.685 29.1474 36.4279 29.1975 36.1709L29.1975 36.1709C29.2611 35.8443 29.3246 35.5178 29.3597 35.1872C29.4036 34.9187 29.3482 34.6433 29.204 34.4126C28.7389 33.8926 28.247 33.3971 27.7304 32.9283C27.6248 32.8079 27.4784 32.7308 27.3193 32.7119C26.9606 32.7478 26.6068 32.804 26.2539 32.8602L26.2539 32.8602L26.2538 32.8602L26.2538 32.8602L26.2538 32.8602L26.2537 32.8602L26.2537 32.8602L26.2536 32.8602L26.2536 32.8602L26.2535 32.8602L26.2535 32.8602C26.0318 32.8955 25.8104 32.9307 25.5883 32.9607C24.8702 33.0567 24.152 33.146 23.4172 33.2374ZM40.3444 34.0616L40.3443 34.0617C40.1311 34.5204 39.9295 34.9541 39.6958 35.3693C38.7914 36.9726 37.4542 38.1346 35.8508 39.0022C35.5016 39.1814 35.1401 39.3354 34.7689 39.4631C34.4552 39.5735 34.2886 39.4631 34.2518 39.1018C34.1527 38.1376 34.034 37.175 33.9159 36.2163L33.9159 36.2159L33.9156 36.2135C33.892 36.0221 33.8684 35.8308 33.845 35.6398C33.8222 35.5348 33.7904 35.432 33.7498 35.3325C33.5854 34.8046 33.7022 34.5925 34.1198 34.2247C34.3754 33.9996 34.6236 33.7258 34.8755 33.4481C35.0352 33.272 35.1964 33.0943 35.3618 32.9264C35.4844 32.8104 35.6474 32.7468 35.8162 32.749C36.4653 32.7988 37.1296 32.8766 37.7852 32.9654C38.1018 33.0093 38.4178 33.0543 38.7413 33.1003C39.342 33.1858 39.9684 33.275 40.6717 33.3678C40.5563 33.6056 40.4489 33.8366 40.3444 34.0616ZM37.3769 28.1515L40.5619 27.7555C40.564 27.6547 40.5516 27.5542 40.5252 27.4569C40.1993 26.7154 39.8315 25.993 39.4238 25.2932C38.3305 23.6165 36.7256 22.3372 34.8475 21.6451C34.4299 21.485 34.2871 21.604 34.2416 22.0475C34.2301 22.1704 34.2188 22.2933 34.2075 22.4161L34.2075 22.4167L34.2074 22.4173L34.2074 22.4179L34.2073 22.4185L34.2072 22.4191L34.2072 22.4197L34.2071 22.4203L34.2071 22.4209L34.2071 22.4211C34.1551 22.9867 34.1033 23.5518 34.0252 24.1139C33.9846 24.3691 33.935 24.6226 33.8853 24.876L33.8853 24.8761C33.8238 25.19 33.7623 25.5039 33.718 25.8211L33.7122 25.8621C33.6555 26.2628 33.6055 26.6163 34.1161 26.903C34.4277 27.0772 34.6744 27.3645 34.9223 27.6532L34.9223 27.6532L34.9223 27.6533C35.0532 27.8057 35.1844 27.9584 35.3257 28.0952C35.4439 28.2278 35.606 28.3131 35.7822 28.3354C36.1766 28.313 36.5699 28.2596 36.9637 28.2062C37.1013 28.1875 37.239 28.1689 37.3769 28.1515ZM21.884 29.1878L24.4805 29.5621C24.5249 29.5685 24.5694 29.5757 24.6139 29.5829L24.6142 29.583C24.691 29.5955 24.7682 29.608 24.8462 29.6162L26.7633 29.8326C26.7957 29.8326 26.8412 29.8326 26.8541 29.8456C26.8737 29.8741 26.8984 29.9076 26.9239 29.9421L26.9241 29.9424L26.9241 29.9424C26.9974 30.0417 27.0768 30.1493 27.0575 30.1702C26.9409 30.3044 26.9956 30.4944 27.0493 30.6809C27.1281 30.9544 27.2047 31.2202 26.7351 31.291C25.9802 31.403 25.2216 31.4852 24.463 31.5673C24.0496 31.6121 23.6362 31.6568 23.2234 31.7064C22.8948 31.7729 22.5624 31.8184 22.228 31.8427C22.0939 31.8427 21.8494 31.6264 21.8472 31.5203C21.8291 30.9514 21.8473 30.38 21.8665 29.7739V29.7738L21.8665 29.7737L21.8665 29.7735C21.8726 29.5821 21.8788 29.3872 21.884 29.1878ZM38.6833 31.5631L41.1326 31.892C41.1463 31.66 41.1587 31.4367 41.1708 31.2197L41.1708 31.2197L41.1708 31.2195C41.1991 30.7122 41.2255 30.2392 41.2603 29.7694C41.2928 29.3691 41.1651 29.2003 40.7324 29.2566C40.0814 29.3431 39.4251 29.4219 38.7716 29.5004L38.7705 29.5006L38.7703 29.5006L38.7701 29.5006L38.77 29.5006L38.7699 29.5006L38.7697 29.5006C38.3291 29.5536 37.8898 29.6063 37.4543 29.6612C37.0929 29.7066 36.7316 29.7607 36.3724 29.8278C36.2664 29.8473 36.0825 29.9079 36.0825 29.9728C36.0127 30.3226 35.9772 30.6784 35.9764 31.0352C35.9786 31.1196 36.1885 31.2602 36.314 31.2775C36.7628 31.3401 37.2094 31.3865 37.6615 31.4335L37.6616 31.4335L37.6616 31.4336L37.6617 31.4336L37.6617 31.4336L37.6618 31.4336L37.6619 31.4336C37.8505 31.4532 38.04 31.4729 38.2311 31.4939C38.3215 31.5042 38.4111 31.5192 38.5008 31.5342L38.5009 31.5342C38.5615 31.5443 38.6222 31.5544 38.6833 31.5631ZM30.8859 35.0249H32.2123L32.2716 35.4994C32.3705 36.2911 32.4694 37.0828 32.5758 37.8746C32.6114 38.1424 32.6513 38.4096 32.6911 38.6767C32.7504 39.074 32.8096 39.471 32.8549 39.8695C32.8679 39.9777 32.7467 40.2028 32.684 40.2049C32.0152 40.2225 31.3449 40.2215 30.6571 40.2205H30.6571H30.657H30.657H30.6569H30.6569H30.6557H30.6546H30.6535C30.4947 40.2203 30.3349 40.2201 30.174 40.2201C30.3185 39.1584 30.4599 38.129 30.6005 37.1053L30.6011 37.1009L30.6016 37.0971L30.6046 37.0753L30.605 37.0724C30.6988 36.3901 30.7921 35.7102 30.8859 35.0249ZM32.0526 26.0828C32.0939 26.0766 32.1376 26.07 32.1854 26.07C32.2215 25.8459 32.2587 25.623 32.2957 25.4007L32.2958 25.4005C32.3876 24.8499 32.4787 24.3034 32.5511 23.7548C32.6701 22.9087 32.7783 22.0605 32.8648 21.2123C32.8778 21.1171 32.7285 20.9008 32.6485 20.9008C31.8371 20.8856 31.0213 20.8856 30.1796 20.8856C30.3464 22.1065 30.508 23.2935 30.6694 24.4792L30.8893 26.0938H31.9452C31.9801 26.0938 32.0154 26.0884 32.0526 26.0828ZM32.387 27.7567C32.4606 28.2934 31.9023 28.6525 31.4869 28.6504C31.0368 28.6504 30.6863 28.2176 30.6928 27.7091C30.6912 27.5948 30.7128 27.4813 30.7562 27.3754C30.7996 27.2696 30.864 27.1737 30.9454 27.0934C31.0269 27.0131 31.1237 26.9501 31.2301 26.9081C31.3366 26.8662 31.4504 26.8463 31.5647 26.8495C31.6791 26.8527 31.7916 26.879 31.8955 26.9268C31.9994 26.9747 32.0926 27.043 32.1694 27.1277C32.2462 27.2125 32.3051 27.3119 32.3425 27.42C32.3799 27.5281 32.395 27.6426 32.387 27.7567ZM29.7083 30.7206C29.7495 30.6141 29.7693 30.5004 29.7664 30.3862C29.7664 29.9427 29.2839 29.4428 28.8815 29.4731C28.6535 29.4999 28.4437 29.6104 28.2926 29.7831C28.1415 29.9558 28.0598 30.1784 28.0636 30.4079C28.0597 30.5215 28.079 30.6347 28.1204 30.7405C28.1617 30.8464 28.2241 30.9428 28.3039 31.0238C28.3836 31.1047 28.4791 31.1686 28.5843 31.2115C28.6895 31.2545 28.8024 31.2755 28.9161 31.2734C29.0303 31.2714 29.143 31.2469 29.2477 31.2011C29.3524 31.1554 29.447 31.0894 29.526 31.0069C29.6051 30.9244 29.667 30.8271 29.7083 30.7206ZM35.015 30.419C35.0152 30.6423 34.9291 30.857 34.7746 31.0183C34.6202 31.1796 34.4094 31.275 34.1863 31.2845C33.9567 31.2741 33.7397 31.177 33.579 31.0127C33.4183 30.8484 33.326 30.6292 33.3208 30.3995C33.3296 30.1633 33.4247 29.9385 33.5883 29.7678C33.7518 29.5971 33.9723 29.4923 34.2079 29.4734C34.4395 29.4938 34.6538 29.6043 34.8048 29.7812C34.9557 29.958 35.0312 30.187 35.015 30.419ZM31.8996 32.2517C31.7922 32.2111 31.677 32.1954 31.5627 32.2057C31.0131 32.1992 30.6972 32.5021 30.6928 33.0344C30.6904 33.1455 30.7099 33.256 30.7502 33.3596C30.7905 33.4631 30.8508 33.5578 30.9276 33.638C31.0045 33.7183 31.0964 33.7826 31.1981 33.8274C31.2998 33.8721 31.4094 33.8964 31.5205 33.8988C31.6316 33.9012 31.7421 33.8818 31.8456 33.8415C31.9492 33.8012 32.0438 33.7409 32.1241 33.664C32.2044 33.5872 32.2687 33.4953 32.3135 33.3936C32.3582 33.2918 32.3825 33.1823 32.3849 33.0712C32.401 32.9575 32.3912 32.8417 32.3563 32.7323C32.3213 32.623 32.2621 32.5229 32.183 32.4397C32.1039 32.3565 32.007 32.2922 31.8996 32.2517Z" fill="black"/>
</svg>
