<svg width="120" height="117" viewBox="0 0 120 117" fill="none" xmlns="http://www.w3.org/2000/svg">
<g filter="url(#filter0_d_950_4946)">
<g filter="url(#filter1_d_950_4946)">
<circle cx="61.5" cy="48.5" r="31" fill="white" stroke="url(#paint0_linear_950_4946)" stroke-width="5"/>
</g>
<g clip-path="url(#clip0_950_4946)">
<path d="M79.7317 44.7521C79.433 44.4953 79.0514 44.2467 78.6283 44.0478C79.6238 42.0674 78.8938 39.424 77.0024 38.1065C75.7995 37.2696 74.2979 37.0873 72.9126 37.427C72.7798 36.7724 72.4065 36.1841 71.7014 35.9023C71.2036 35.7035 70.7142 35.7118 70.2496 35.8609C69.7851 34.1042 68.7232 32.5547 66.9645 31.8421C64.9652 31.03 62.8498 31.7758 61.2985 33.1513C60.5353 32.3475 59.5564 31.8089 58.4448 32.2149C57.4493 32.5795 56.7193 33.2922 56.2547 34.1871C54.7781 33.723 53.036 33.9633 51.8912 34.9991C50.4477 36.3084 49.784 38.0899 49.6679 39.9461C49.1204 39.6395 48.4982 39.5815 47.8926 40.0455C47.0962 40.6587 47.0464 41.5785 47.3368 42.432C47.2953 42.4237 47.2455 42.4154 47.2041 42.4154C46.0261 42.3574 44.7651 43.2772 44.06 44.1389C42.8654 45.6056 42.7078 47.4866 43.4212 49.0776C41.4966 51.3398 42.1354 55.1349 44.8896 56.469C46.7976 57.3888 49.1204 57.223 50.7463 56.1044C51.0865 56.8004 51.6423 57.3805 52.3723 57.7202C53.6001 58.292 54.7366 57.8279 55.4417 56.9164C55.757 58.2671 57.7314 58.872 58.9674 58.7726C59.9712 58.6897 60.8257 58.1428 61.4976 57.4053C62.659 58.2008 64.2352 58.4991 65.604 58.3251C66.6742 58.1843 67.8024 57.5379 68.5324 56.6347C68.7398 57.1236 69.2707 57.4219 69.8265 57.3473C70.3658 57.2728 70.905 56.8336 71.1373 56.3033C72.1825 56.8253 73.5679 56.8999 74.5302 56.5767C75.5008 56.2618 76.2309 55.6238 76.7535 54.8366C77.1268 54.8366 77.5001 54.7786 77.89 54.646C79.8229 53.9914 81.2 51.8286 81.5318 49.9062C81.8554 48.0087 81.2 46.0117 79.7317 44.7521Z" fill="#82C443"/>
<path d="M81.5357 49.8951C81.5772 49.6796 81.5938 49.4559 81.6104 49.2405C80.2914 50.674 77.9271 49.7956 77.9271 49.7956C77.9271 49.7956 77.2468 52.6544 73.8539 52.613C70.4692 52.5716 69.6977 47.5418 69.6977 47.5418C69.6977 47.5418 68.5529 50.8729 65.6411 49.4559C62.7293 48.0472 62.7293 44.4178 62.7293 44.4178C62.7293 44.4178 61.7089 46.4148 59.5935 46.4977C57.4781 46.5806 56.3831 42.86 56.3831 42.86C56.3831 42.86 52.8574 43.8958 51.8785 40.0426C51.2314 37.4822 52.9403 35.2449 54.2179 33.9854C53.3551 34.0848 52.5338 34.4162 51.8951 34.9963C50.4516 36.3055 49.7879 38.0871 49.6718 39.9432C49.1243 39.6366 48.5021 39.5786 47.8965 40.0426C47.1001 40.6558 47.0504 41.5756 47.3407 42.4291C47.2992 42.4208 47.2495 42.4125 47.208 42.4125C46.03 42.3545 44.769 43.2743 44.0639 44.1361C42.8693 45.6028 42.7117 47.4838 43.4251 49.0747C41.5005 51.3369 42.1393 55.132 44.8935 56.4661C46.8015 57.3859 49.1243 57.2202 50.7503 56.1015C51.0904 56.7976 51.6462 57.3776 52.3762 57.7174C53.604 58.2891 54.7405 57.8251 55.4456 56.9136C55.7609 58.2643 57.7353 58.8692 58.9713 58.7697C59.9751 58.6869 60.8296 58.14 61.5015 57.4025C62.6629 58.198 64.2391 58.4963 65.6079 58.3223C66.6781 58.1814 67.8063 57.5351 68.5363 56.6319C68.7437 57.1207 69.2746 57.4191 69.8304 57.3445C70.3697 57.2699 70.9089 56.8307 71.1412 56.3004C72.1864 56.8224 73.5718 56.897 74.5341 56.5739C75.5047 56.259 76.2348 55.6209 76.7574 54.8337C77.1307 54.8337 77.504 54.7757 77.8939 54.6431C79.8268 53.9802 81.2039 51.8175 81.5357 49.8951Z" fill="#76A541"/>
<path d="M57.263 67.56H67.9977C65.7827 65.795 64.5218 63.1599 64.0572 60.3674C63.6341 57.8318 63.3686 53.9373 65.3098 51.9154C66.463 50.7222 68.1221 50.8299 69.6402 50.9128C71.009 50.979 72.3695 50.9459 73.7134 50.6559C75.9616 50.1753 78.2263 49.0566 78.7323 46.6287C78.7738 46.4133 78.4586 46.3221 78.4005 46.5376C77.5046 49.9267 73.5143 50.1338 70.3868 50.0427C70.6772 49.9184 70.9592 49.761 71.2164 49.5621C72.2866 48.7169 72.5354 47.2833 73.813 46.637C73.8876 46.5956 73.8379 46.4796 73.7549 46.4961C72.7926 46.7696 72.2451 47.5651 71.5399 48.2197C70.3951 49.2969 69.101 49.5455 67.5995 49.7527C66.4049 49.9184 65.2269 50.109 64.1816 50.7387C64.0074 50.8382 63.8498 50.9625 63.6922 51.0868C63.2525 49.8355 62.9787 48.6506 63.659 47.3331C64.389 45.9244 65.6915 45.2615 67.193 44.9715C68.9932 44.6234 70.7436 44.3168 71.5151 42.4607C71.5565 42.353 71.3989 42.3033 71.3408 42.3861C70.3619 43.7451 68.4456 43.8031 66.9524 44.0848C66.8777 44.1014 66.8114 44.118 66.7367 44.1345C66.8363 44.0268 66.9358 43.9108 67.0271 43.7865C67.8981 42.6264 68.0474 41.2261 68.2714 39.8422C68.2797 39.7677 68.1719 39.7345 68.1553 39.8091C67.7156 41.6238 66.8446 43.1236 65.3264 44.2423C64.3392 44.9632 63.2359 45.6012 62.5557 46.6453C61.8671 47.6894 61.7593 48.924 61.8173 50.1421C61.8339 50.6144 61.8588 51.0536 61.8671 51.4845C61.7842 51.3934 61.6929 51.3105 61.6099 51.2276C60.4071 50.0178 59.0798 48.8992 58.2751 47.3579C57.2713 45.4355 57.7939 43.9191 58.9636 42.2701C59.7683 41.1432 60.3573 39.9417 60.1831 38.5247C60.1665 38.4087 59.9923 38.4004 59.9923 38.5247C60.0669 40.4554 58.1423 41.5741 57.2796 43.1153C56.6989 44.1594 56.591 45.2863 56.8565 46.3967C55.413 44.6897 54.1355 42.8502 53.7954 40.6792C53.7871 40.6129 53.6709 40.6294 53.6709 40.6957C53.8285 44.0185 55.5624 46.4299 57.6778 48.8826C58.0843 49.3549 58.4908 49.8272 58.8807 50.3161C58.9221 50.5067 58.9719 50.689 59.0134 50.8713C58.947 50.805 58.8724 50.7387 58.7977 50.6807C58.2585 50.2499 57.7856 49.8521 57.1468 49.6367C56.7984 49.4295 56.3505 49.3798 55.9523 49.2555C52.9243 48.3109 49.5148 50.5896 47.2003 47.5734C47.0924 47.4408 46.885 47.5154 46.9182 47.6894C47.2666 49.4212 49.3903 49.8935 50.9084 49.9101C51.3315 49.9101 51.7629 49.8853 52.186 49.8521C52.1694 49.8604 52.1528 49.8687 52.1362 49.877C51.2901 50.3493 50.5517 50.9873 49.7056 51.4597C48.6935 52.0148 47.615 52.4292 46.4951 52.7109C46.437 52.7275 46.4536 52.8103 46.5117 52.8103C47.8971 52.7606 49.1995 52.4789 50.4356 51.8243C51.9952 51.0039 53.2893 49.819 55.189 50.1256C56.1597 50.283 57.0224 50.7305 57.7441 51.3519C58.1672 51.8077 58.5239 52.3214 58.7977 52.8766C60.0669 55.3874 59.9923 58.6356 59.6273 61.3618C59.3203 63.7234 58.5156 65.6955 57.263 67.56Z" fill="#7E502F"/>
<path d="M59.6531 61.4034C60.0098 58.6772 60.0845 55.4289 58.8236 52.9182C58.5415 52.3713 58.1931 51.8492 57.77 51.3935C57.04 50.772 56.1772 50.3246 55.2149 50.1671C53.3235 49.8522 52.0211 51.0455 50.4615 51.8658C49.2254 52.5121 47.923 52.8022 46.5376 52.8519C46.521 52.8519 46.5044 52.8436 46.4961 52.827C47.3837 52.6364 49.1341 52.1558 49.7563 51.8575C50.6025 51.4432 52.7926 49.8688 52.7926 49.8688H52.1953L52.104 49.9019C51.7141 49.9351 51.3325 49.96 50.9426 49.9517C49.4245 49.9351 47.3008 49.4628 46.9524 47.7309C46.9358 47.6646 46.9607 47.6149 46.9938 47.5818C47.2759 48.1618 47.7653 48.8579 48.5451 49.1479C49.9969 49.6865 51.9713 49.6036 53.0165 49.4711C54.0535 49.3385 55.6878 49.5125 56.6998 49.9931C57.7202 50.4737 59.4291 51.7249 59.4291 51.7249L59.0392 50.8963C58.9895 50.714 58.7074 50.424 58.583 50.2085C58.1682 49.5374 58.1101 49.3882 57.7036 48.9159C55.5882 46.4631 53.8544 44.0601 53.6968 40.729C53.6968 40.671 53.7715 40.6544 53.8046 40.6876C53.8129 41.3256 53.9208 42.1045 54.2443 42.8669C54.9826 44.5987 57.4796 47.7641 57.4796 47.7641L56.8907 46.4383C56.6252 45.3279 56.733 44.1927 57.3137 43.1569C58.1765 41.6156 60.1011 40.497 60.0264 38.5663C60.0264 38.5165 60.0513 38.4917 60.0845 38.4834C59.9601 39.5606 59.6863 40.9527 59.0475 41.6902C57.9193 42.9912 57.1478 44.5904 57.2308 45.8085C57.3137 47.0183 58.5996 49.0982 59.396 49.9682C60.4329 51.12 61.8598 53.6805 61.8847 54.9152C61.9013 55.7687 60.7482 63.2264 61.6524 65.5217C61.9262 66.2177 62.2746 66.9386 62.6313 67.6015H57.2888C58.5415 65.7123 59.3462 63.7484 59.6531 61.4034ZM62.5981 50.1174C62.4903 49.0567 62.706 47.8884 63.3281 46.6289C63.9586 45.3693 66.1238 44.0932 66.97 43.2729C67.5839 42.668 67.9655 40.8616 68.1231 39.9252C67.6751 41.6819 66.8041 43.1486 65.3274 44.2424C64.3402 44.9633 63.2369 45.6013 62.5566 46.6454C61.8681 47.6895 61.7602 48.9242 61.8183 50.1423C61.8349 50.6146 61.8598 51.0537 61.8681 51.4846L62.623 52.5619C62.623 52.5701 62.706 51.178 62.5981 50.1174ZM78.4098 46.5377C77.5139 49.9268 73.5236 50.134 70.3961 50.0428L69.5665 50.3163C69.5665 50.3163 73.2498 50.5317 74.5108 50.1837C75.7717 49.8357 77.4641 48.6673 77.9618 48.0624C78.3185 47.6315 78.5674 46.8609 78.6753 46.4548C78.584 46.3885 78.443 46.4051 78.4098 46.5377ZM66.746 44.1347L66.1155 44.6981C66.1155 44.6981 69.1517 44.2175 69.973 43.7701C70.5454 43.4552 71.1842 42.7923 71.5243 42.4111C71.5077 42.3448 71.3916 42.3283 71.3501 42.3863C70.3712 43.7452 68.4549 43.8032 66.9617 44.085C66.887 44.1015 66.8123 44.1264 66.746 44.1347ZM72.7272 47.3912C73.001 47.0349 73.4655 46.7697 73.8471 46.5957C73.8637 46.546 73.814 46.4797 73.7559 46.4963C72.7936 46.7697 72.2461 47.5652 71.5409 48.2198C70.3961 49.297 69.102 49.5456 67.6004 49.7528C66.4059 49.9185 65.2279 50.1091 64.1826 50.7389C64.0084 50.8383 63.8508 50.9626 63.6932 51.0869C63.9088 51.7498 63.7429 52.4127 63.7429 52.4127C64.4978 50.482 69.1849 49.9019 69.9896 49.7445C70.7943 49.6036 72.2046 48.0624 72.7272 47.3912Z" fill="#6A4024"/>
<path d="M64.644 45.8423C64.644 45.834 64.6357 45.8257 64.6357 45.8174C64.1048 44.3425 62.5535 43.373 60.9524 43.9447C59.6749 44.4005 59.2601 45.5771 59.3182 46.53C58.7624 45.7594 57.6922 45.1131 56.4147 45.5605C54.8053 46.1323 54.2246 47.8641 54.7472 49.3391C54.7472 49.3474 54.7555 49.3557 54.7555 49.364C54.8634 49.6871 56.0331 52.9519 61.9313 53.8552C65.9299 49.4385 64.7685 46.1654 64.644 45.8423Z" fill="#EE5282"/>
<path d="M59.75 53.3668C60.3971 53.5657 61.1188 53.7397 61.9318 53.864C65.922 49.4391 64.7689 46.166 64.6445 45.8511C64.6445 45.8428 64.6362 45.8345 64.6362 45.8262C64.5698 45.6356 64.4869 45.4616 64.3873 45.2959C64.1716 49.5965 61.5834 52.1155 59.75 53.3668Z" fill="#EE3D7E"/>
<path d="M55.1365 49.5889C55.1365 49.5889 54.0995 46.7882 57.0113 45.7109C57.0113 45.7109 55.1945 46.9042 55.1365 49.5889Z" fill="#EF6C9D"/>
<path d="M73.453 55.993L72.4824 57.5591L66.0449 53.5319L67.0155 51.9658L73.453 55.993Z" fill="#5E7B80"/>
<path opacity="0.18" d="M66.1445 53.5994L69.9274 53.79L67.1151 52.0333C67.1068 52.025 66.6589 52.9613 66.1445 53.5994Z" fill="#010101"/>
<path opacity="0.2" d="M60.4961 55.8938C64.4409 55.8938 67.6388 52.6736 67.6388 48.7013C67.6388 44.729 64.4409 41.5088 60.4961 41.5088C56.5514 41.5088 53.3535 44.729 53.3535 48.7013C53.3535 52.6736 56.5514 55.8938 60.4961 55.8938Z" fill="#F3F3F3"/>
<path opacity="0.18" d="M63.1851 54.3284C61.8992 54.7013 60.5719 54.7841 59.2446 54.6101C57.9754 54.4444 56.6148 54.0549 55.553 53.3174C55.1133 53.0108 54.7068 52.6462 54.375 52.2236C55.3041 53.7815 56.8222 54.9913 58.7054 55.4802C61.584 56.2259 64.4958 55.099 66.1881 52.8534C65.3088 53.5412 64.2469 54.0218 63.1851 54.3284Z" fill="#010101"/>
<path d="M77.9683 59.367L77.5535 60.0464C77.2798 60.4939 76.6991 60.6265 76.2511 60.353L69.656 56.2265C69.5813 56.185 69.5647 56.0856 69.6062 56.011L70.8506 53.9809C70.892 53.9063 70.9916 53.8814 71.0663 53.9311L77.6614 58.0577C78.1093 58.3312 78.2504 58.9195 77.9683 59.367Z" fill="#163E4A"/>
<path d="M72.2329 54.593L70.8226 56.8883L70.5488 56.7143L71.9591 54.4189L72.2329 54.593Z" fill="#F7D77F"/>
<path d="M72.8813 55.0163L71.471 57.3116L71.1973 57.1376L72.6075 54.8506L72.8813 55.0163Z" fill="#F7D77F"/>
<path d="M66.9998 52.7623C64.7765 56.3752 60.0479 57.4938 56.4559 55.2482C52.8721 53.0026 51.7605 48.238 53.9837 44.6252C56.207 41.0123 60.9356 39.8937 64.5276 42.1393C68.1197 44.3849 69.223 49.1495 66.9998 52.7623ZM54.581 45.0064C52.5569 48.2877 53.569 52.6215 56.8292 54.6599C60.0894 56.6983 64.3866 55.6791 66.4108 52.3977C68.4349 49.1164 67.4228 44.7826 64.1626 42.7442C60.9024 40.7058 56.6052 41.7167 54.581 45.0064Z" fill="#163E4A"/>
<path opacity="0.61" d="M61.2757 42.529C60.2553 42.2722 59.1354 42.413 58.1814 42.8356C57.3518 43.2002 56.5471 43.8963 56.3149 44.7995C56.2817 44.9403 56.4476 45.0978 56.5637 44.9735C57.1195 44.3934 57.7168 43.888 58.4634 43.5731C59.3179 43.2085 60.2221 43.2499 61.1181 43.2997C61.5412 43.3162 61.7154 42.645 61.2757 42.529Z" fill="white"/>
<path d="M60.4542 55.8033C56.5635 55.8033 53.3945 52.613 53.3945 48.6853C53.3945 44.7576 56.5635 41.5674 60.4542 41.5674C64.3449 41.5674 67.5139 44.7576 67.5139 48.6853C67.5139 52.613 64.3532 55.8033 60.4542 55.8033ZM60.4542 41.7082C56.6382 41.7082 53.5273 44.8405 53.5273 48.6853C53.5273 52.5302 56.6382 55.6624 60.4542 55.6624C64.2702 55.6624 67.3811 52.5302 67.3811 48.6853C67.3811 44.8405 64.2785 41.7082 60.4542 41.7082Z" fill="#BA666E"/>
</g>
</g>
<defs>
<filter id="filter0_d_950_4946" x="3" y="0" width="117" height="117" filterUnits="userSpaceOnUse" color-interpolation-filters="sRGB">
<feFlood flood-opacity="0" result="BackgroundImageFix"/>
<feColorMatrix in="SourceAlpha" type="matrix" values="0 0 0 0 0 0 0 0 0 0 0 0 0 0 0 0 0 0 127 0" result="hardAlpha"/>
<feOffset dy="10"/>
<feGaussianBlur stdDeviation="12.5"/>
<feColorMatrix type="matrix" values="0 0 0 0 1 0 0 0 0 0.764706 0 0 0 0 0.101961 0 0 0 1 0"/>
<feBlend mode="normal" in2="BackgroundImageFix" result="effect1_dropShadow_950_4946"/>
<feBlend mode="normal" in="SourceGraphic" in2="effect1_dropShadow_950_4946" result="shape"/>
</filter>
<filter id="filter1_d_950_4946" x="0" y="10" width="107" height="107" filterUnits="userSpaceOnUse" color-interpolation-filters="sRGB">
<feFlood flood-opacity="0" result="BackgroundImageFix"/>
<feColorMatrix in="SourceAlpha" type="matrix" values="0 0 0 0 0 0 0 0 0 0 0 0 0 0 0 0 0 0 127 0" result="hardAlpha"/>
<feOffset dx="-8" dy="15"/>
<feGaussianBlur stdDeviation="10"/>
<feColorMatrix type="matrix" values="0 0 0 0 0.154167 0 0 0 0 0.0990307 0 0 0 0 0.0218403 0 0 0 0.15 0"/>
<feBlend mode="normal" in2="BackgroundImageFix" result="effect1_dropShadow_950_4946"/>
<feBlend mode="normal" in="SourceGraphic" in2="effect1_dropShadow_950_4946" result="shape"/>
</filter>
<linearGradient id="paint0_linear_950_4946" x1="61.5" y1="15" x2="61.5" y2="82" gradientUnits="userSpaceOnUse">
<stop stop-color="#FFA31A"/>
<stop offset="1" stop-color="#FFE81A" stop-opacity="0.43"/>
</linearGradient>
<clipPath id="clip0_950_4946">
<rect width="39.2969" height="36.0786" fill="white" transform="translate(42.3203 31.499)"/>
</clipPath>
</defs>
</svg>
