<svg width="38" height="38" viewBox="0 0 38 38" fill="none" xmlns="http://www.w3.org/2000/svg">
<circle cx="19" cy="19" r="19" fill="#ECEFF0"/>
<path fill-rule="evenodd" clip-rule="evenodd" d="M25.4424 17.9801C25.8026 17.9801 26.0933 18.2716 26.0933 18.6309C26.0933 22.6159 23.0347 25.8964 19.1513 26.2291L19.1511 28.3492C19.1511 28.7084 18.8595 29 18.5002 29C18.141 29 17.8494 28.7084 17.8494 28.3492L17.85 26.2292C13.9662 25.8969 10.9072 22.6162 10.9072 18.6309C10.9072 18.2716 11.1988 17.9801 11.5581 17.9801C11.9182 17.9801 12.2089 18.2716 12.2089 18.6309C12.2089 22.1176 15.0309 24.9552 18.5002 24.9552C21.9696 24.9552 24.7916 22.1176 24.7916 18.6309C24.7916 18.2716 25.0832 17.9801 25.4424 17.9801ZM18.5002 10.3429C20.8025 10.3429 22.676 12.2233 22.676 14.5351V18.6032C22.676 20.9141 20.8025 22.7946 18.5002 22.7946C16.198 22.7946 14.3245 20.9141 14.3245 18.6032V14.5351C14.3245 12.2233 16.198 10.3429 18.5002 10.3429ZM18.5002 11.6445C16.9157 11.6445 15.6262 12.941 15.6262 14.5351V18.6032C15.6262 20.1956 16.9157 21.4929 18.5002 21.4929C20.0848 21.4929 21.3743 20.1956 21.3743 18.6032V14.5351C21.3743 12.941 20.0848 11.6445 18.5002 11.6445Z" fill="#181B1B"/>
</svg>
