<svg width="38" height="38" viewBox="0 0 38 38" fill="none" xmlns="http://www.w3.org/2000/svg">
<g id="Group 46824">
<circle id="Ellipse 843" cx="19" cy="19" r="19" fill="#ECEFF0"/>
<g id="Group 89">
<path id="Vector" d="M15 9V12" stroke="#292D32" stroke-width="1.5" stroke-miterlimit="10" stroke-linecap="round" stroke-linejoin="round"/>
<path id="Vector_2" d="M23 9V12" stroke="#292D32" stroke-width="1.5" stroke-miterlimit="10" stroke-linecap="round" stroke-linejoin="round"/>
<path id="Vector_3" d="M10.5 16.09H27.5" stroke="#292D32" stroke-width="1.5" stroke-miterlimit="10" stroke-linecap="round" stroke-linejoin="round"/>
<g id="Group">
<path id="Vector_4" d="M26.21 22.77L22.6701 26.31C22.5301 26.45 22.4 26.71 22.37 26.9L22.18 28.25C22.11 28.74 22.45 29.0801 22.94 29.0101L24.29 28.82C24.48 28.79 24.75 28.66 24.88 28.52L28.4201 24.9801C29.0301 24.3701 29.3201 23.6601 28.4201 22.7601C27.5301 21.8701 26.82 22.16 26.21 22.77Z" stroke="#292D32" stroke-width="1.5" stroke-miterlimit="10" stroke-linecap="round" stroke-linejoin="round"/>
<path id="Vector_5" d="M25.7002 23.28C26.0002 24.36 26.8402 25.2 27.9202 25.5" stroke="#292D32" stroke-width="1.5" stroke-miterlimit="10" stroke-linecap="round" stroke-linejoin="round"/>
</g>
<path id="Vector_6" d="M19 29H15C11.5 29 10 27 10 24V15.5C10 12.5 11.5 10.5 15 10.5H23C26.5 10.5 28 12.5 28 15.5V19" stroke="#292D32" stroke-width="1.5" stroke-miterlimit="10" stroke-linecap="round" stroke-linejoin="round"/>
<path id="Vector_7" d="M18.9955 20.7H19.0045" stroke="#292D32" stroke-width="2" stroke-linecap="round" stroke-linejoin="round"/>
<path id="Vector_8" d="M15.2943 20.7H15.3033" stroke="#292D32" stroke-width="2" stroke-linecap="round" stroke-linejoin="round"/>
<path id="Vector_9" d="M15.2943 23.7H15.3033" stroke="#292D32" stroke-width="2" stroke-linecap="round" stroke-linejoin="round"/>
</g>
</g>
</svg>
