<svg width="38" height="38" viewBox="0 0 38 38" fill="none" xmlns="http://www.w3.org/2000/svg">
<circle cx="19" cy="19" r="19" fill="#ECEFF0"/>
<path fill-rule="evenodd" clip-rule="evenodd" d="M12.9563 12.5386C12.958 12.5386 12.9165 12.5817 12.8643 12.6331C12.6636 12.828 12.2482 13.2335 12.244 14.0818C12.2374 15.2685 13.0177 17.4718 16.775 21.2284C20.5149 24.9667 22.7149 25.7561 23.9041 25.7561H23.9215C24.7698 25.752 25.1745 25.3357 25.3702 25.1358C25.4299 25.0745 25.478 25.0297 25.512 25.0015C26.3379 24.1706 26.7608 23.552 26.7567 23.1556C26.7509 22.7509 26.2475 22.2724 25.5518 21.6107C25.3304 21.4 25.0899 21.1712 24.8361 20.9174C24.1785 20.2615 23.8526 20.3734 23.1362 20.6255C22.1452 20.973 20.7853 21.4456 18.6723 19.3319C16.5561 17.2173 17.0296 15.8589 17.3762 14.868C17.6267 14.1515 17.7411 13.8248 17.0827 13.1664C16.8248 12.9093 16.5934 12.6655 16.3803 12.4416C15.7227 11.75 15.2484 11.2499 14.8462 11.2441H14.8396C14.4423 11.2441 13.8254 11.6687 12.9522 12.5419C12.9547 12.5394 12.9555 12.5386 12.9563 12.5386ZM23.9049 27C21.8384 27 19.1442 25.3548 15.896 22.1082C12.6354 18.8484 10.9877 16.1459 11.0001 14.0752C11.0076 12.7069 11.7249 12.0062 11.9944 11.7433C12.0085 11.7259 12.0566 11.6787 12.0732 11.6621C13.2623 10.4721 14.0642 9.99113 14.8619 10.0001C15.7882 10.0127 16.4475 10.7059 17.2817 11.5841C17.4882 11.8014 17.7121 12.0377 17.9617 12.2865C19.1724 13.4972 18.8274 14.4849 18.5504 15.2776C18.2486 16.1425 17.9874 16.8889 19.5513 18.4529C21.117 20.0168 21.8633 19.7556 22.7249 19.4513C23.5185 19.1743 24.5036 18.8277 25.716 20.0384C25.9614 20.2839 26.1944 20.5053 26.4092 20.7101C27.2915 21.5485 27.9881 22.211 27.9999 23.1398C28.0097 23.9318 27.5287 24.7386 26.3412 25.9269L25.8155 25.5704L26.2599 26.0049C25.9971 26.2744 25.2972 26.9925 23.9281 27H23.9049Z" fill="#181B1B"/>
</svg>
