<svg width="38" height="38" viewBox="0 0 38 38" fill="none" xmlns="http://www.w3.org/2000/svg">
<circle cx="19" cy="19" r="19" fill="#ECEFF0"/>
<path fill-rule="evenodd" clip-rule="evenodd" d="M18.4238 10.4423C16.7988 10.4423 15.4814 11.7596 15.4814 13.3846C15.4814 15.0096 16.7988 16.3269 18.4238 16.3269C20.0487 16.3269 21.3661 15.0096 21.3661 13.3846C21.3661 11.7596 20.0487 10.4423 18.4238 10.4423ZM13.9814 13.3846C13.9814 10.9312 15.9703 8.94232 18.4238 8.94232C20.8772 8.94232 22.8661 10.9312 22.8661 13.3846C22.8661 15.838 20.8772 17.8269 18.4238 17.8269C15.9703 17.8269 13.9814 15.838 13.9814 13.3846ZM12.0511 21.3204C12.8842 20.4873 14.0141 20.0193 15.1923 20.0193H21.6538C22.832 20.0193 23.9619 20.4873 24.795 21.3204C25.6281 22.1535 26.0962 23.2834 26.0962 24.4616V26.3077C26.0962 26.7219 25.7604 27.0577 25.3462 27.0577C24.9319 27.0577 24.5962 26.7219 24.5962 26.3077V24.4616C24.5962 23.6812 24.2862 22.9328 23.7344 22.381C23.1826 21.8292 22.4342 21.5193 21.6538 21.5193H15.1923C14.412 21.5193 13.6636 21.8292 13.1118 22.381C12.56 22.9328 12.25 23.6812 12.25 24.4616V26.3077C12.25 26.7219 11.9142 27.0577 11.5 27.0577C11.0858 27.0577 10.75 26.7219 10.75 26.3077V24.4616C10.75 23.2834 11.218 22.1535 12.0511 21.3204ZM32.3383 15.7611C32.6312 15.4682 32.6312 14.9933 32.3383 14.7004C32.0454 14.4076 31.5706 14.4076 31.2777 14.7004L28.1157 17.8624L26.7999 16.5466C26.507 16.2537 26.0321 16.2537 25.7392 16.5466C25.4463 16.8395 25.4463 17.3144 25.7392 17.6073L27.5854 19.4534C27.8782 19.7463 28.3531 19.7463 28.646 19.4534L32.3383 15.7611Z" fill="black"/>
</svg>
