<svg width="38" height="38" viewBox="0 0 38 38" fill="none" xmlns="http://www.w3.org/2000/svg">
<circle cx="19" cy="19" r="19" fill="#ECEFF0"/>
<path fill-rule="evenodd" clip-rule="evenodd" d="M27 25.357C27 28.6863 22.4343 29.0711 19.001 29.0711L18.7553 29.0709C16.5679 29.0656 11 28.9275 11 25.3368C11 22.0754 15.3822 21.6396 18.7894 21.6231L19.2467 21.6228C21.434 21.6281 27 21.7663 27 25.357ZM19.001 23.1378C14.697 23.1378 12.5152 23.8772 12.5152 25.3368C12.5152 26.8095 14.697 27.556 19.001 27.556C23.304 27.556 25.4848 26.8166 25.4848 25.357C25.4848 23.8842 23.304 23.1378 19.001 23.1378ZM19.001 9C21.9586 9 24.3636 11.4061 24.3636 14.3636C24.3636 17.3212 21.9586 19.7263 19.001 19.7263H18.9687C16.0172 19.7172 13.6263 17.3101 13.6363 14.3606C13.6363 11.4061 16.0424 9 19.001 9ZM19.001 10.4424C16.8384 10.4424 15.0788 12.201 15.0788 14.3636C15.0717 16.5192 16.8182 18.2768 18.9717 18.2848L19.001 19.0061V18.2848C21.1626 18.2848 22.9212 16.5253 22.9212 14.3636C22.9212 12.201 21.1626 10.4424 19.001 10.4424Z" fill="#181B1B"/>
</svg>
