<svg width="40" height="40" viewBox="0 0 40 40" fill="none" xmlns="http://www.w3.org/2000/svg">
<circle cx="20" cy="20" r="20" fill="#ECEFF0"/>
<path fill-rule="evenodd" clip-rule="evenodd" d="M11.75 20C11.75 15.4437 15.4437 11.75 20 11.75C24.5563 11.75 28.25 15.4437 28.25 20C28.25 24.5563 24.5563 28.25 20 28.25C15.4437 28.25 11.75 24.5563 11.75 20ZM20 10.25C14.6152 10.25 10.25 14.6152 10.25 20C10.25 25.3848 14.6152 29.75 20 29.75C25.3848 29.75 29.75 25.3848 29.75 20C29.75 14.6152 25.3848 10.25 20 10.25ZM20.75 16C20.75 15.5858 20.4142 15.25 20 15.25C19.5858 15.25 19.25 15.5858 19.25 16V20.5C19.25 20.8312 19.4673 21.1232 19.7845 21.2184L24.7845 22.7184C25.1812 22.8374 25.5993 22.6123 25.7184 22.2155C25.8374 21.8188 25.6123 21.4007 25.2155 21.2816L20.75 19.942V16Z" fill="#3E4242"/>
</svg>
