<svg width="38" height="38" viewBox="0 0 38 38" fill="none" xmlns="http://www.w3.org/2000/svg">
<circle cx="19" cy="19" r="19" fill="#ECEFF0"/>
<path fill-rule="evenodd" clip-rule="evenodd" d="M18.1278 20.9088L21.5036 26.3855C21.6513 26.6255 21.8821 26.6227 21.9753 26.6098C22.0686 26.5969 22.2929 26.5397 22.3741 26.2673L26.5954 12.0101C26.6693 11.7581 26.5336 11.5864 26.4727 11.5254C26.4136 11.4645 26.2447 11.3344 26 11.4036L11.7326 15.5815C11.4621 15.6609 11.4031 15.888 11.3901 15.9812C11.3772 16.0763 11.3735 16.3117 11.6126 16.4622L17.1521 19.9266L22.0464 14.9806C22.315 14.7092 22.7535 14.7064 23.0258 14.9751C23.2981 15.2437 23.3 15.6831 23.0313 15.9545L18.1278 20.9088ZM21.9033 28C21.2608 28 20.6719 27.6732 20.3248 27.112L16.746 21.3048L10.8787 17.6354C10.2464 17.2394 9.91595 16.5342 10.0184 15.7929C10.12 15.0517 10.6286 14.4627 11.3431 14.2532L25.6105 10.0753C26.2668 9.88325 26.9702 10.0651 27.4539 10.547C27.9376 11.0334 28.1176 11.7442 27.9219 12.4033L23.7006 26.6597C23.4892 27.3769 22.8984 27.8837 22.159 27.9825C22.0722 27.9935 21.9882 28 21.9033 28Z" fill="#181B1B"/>
</svg>
