<svg width="38" height="38" viewBox="0 0 38 38" fill="none" xmlns="http://www.w3.org/2000/svg">
<circle cx="19" cy="19" r="19" fill="#ECEFF0"/>
<path fill-rule="evenodd" clip-rule="evenodd" d="M22.7917 9C25.9072 9 28 11.1334 28 14.3083V23.4208C28 26.6235 25.9716 28.7064 22.8324 28.7262L15.2092 28.7292C12.0938 28.7292 10 26.5957 10 23.4208V14.3083C10 11.1047 12.0284 9.02279 15.1676 9.00396L22.7908 9H22.7917ZM22.7917 10.4864L15.1726 10.4903C12.8657 10.5042 11.4864 11.9311 11.4864 14.3083V23.4208C11.4864 25.8139 12.8786 27.2428 15.2083 27.2428L22.8274 27.2398C25.1343 27.2259 26.5136 25.797 26.5136 23.4208V14.3083C26.5136 11.9153 25.1224 10.4864 22.7917 10.4864ZM22.6006 22.3513C23.0108 22.3513 23.3438 22.6843 23.3438 23.0945C23.3438 23.5047 23.0108 23.8377 22.6006 23.8377H15.4462C15.0359 23.8377 14.703 23.5047 14.703 23.0945C14.703 22.6843 15.0359 22.3513 15.4462 22.3513H22.6006ZM22.6006 18.2028C23.0108 18.2028 23.3438 18.5358 23.3438 18.946C23.3438 19.3563 23.0108 19.6892 22.6006 19.6892H15.4462C15.0359 19.6892 14.703 19.3563 14.703 18.946C14.703 18.5358 15.0359 18.2028 15.4462 18.2028H22.6006ZM18.1759 14.064C18.5861 14.064 18.919 14.3969 18.919 14.8072C18.919 15.2174 18.5861 15.5504 18.1759 15.5504H15.4459C15.0356 15.5504 14.7027 15.2174 14.7027 14.8072C14.7027 14.3969 15.0356 14.064 15.4459 14.064H18.1759Z" fill="#181B1B"/>
</svg>
