<svg width="10" height="10" viewBox="0 0 10 10" fill="none" xmlns="http://www.w3.org/2000/svg">
<path d="M4.49846 1.31462C4.70929 0.895125 5.29071 0.895126 5.50154 1.31462L6.35521 3.01324C6.4344 3.17082 6.57883 3.28258 6.74759 3.31687L8.54366 3.68186C8.97394 3.7693 9.14785 4.30729 8.85464 4.64384L7.56769 6.12099C7.45834 6.24651 7.40705 6.41476 7.42708 6.58228L7.63774 8.34399C7.6977 8.84546 7.1534 9.18293 6.75258 8.89279L5.32443 7.85901C5.1297 7.71806 4.8703 7.71806 4.67557 7.85901L3.24742 8.89279C2.8466 9.18293 2.3023 8.84546 2.36226 8.34399L2.57292 6.58228C2.59295 6.41476 2.54166 6.24651 2.43231 6.12099L1.14536 4.64384C0.852148 4.30729 1.02606 3.7693 1.45634 3.68186L3.2524 3.31687C3.42116 3.28258 3.5656 3.17082 3.64479 3.01324L4.49846 1.31462Z" fill="#066028" stroke="#066028" stroke-linecap="round" stroke-linejoin="round"/>
</svg>
