<svg width="19" height="21" viewBox="0 0 19 21" fill="none" xmlns="http://www.w3.org/2000/svg">
<path fill-rule="evenodd" clip-rule="evenodd" d="M6.7851 2.23964C6.93853 2.0862 7.14664 2 7.36364 2H11C11.217 2 11.4251 2.0862 11.5785 2.23964C11.732 2.39308 11.8182 2.60119 11.8182 2.81818V3.63636H6.54545V2.81818C6.54545 2.60119 6.63166 2.39308 6.7851 2.23964ZM4.54545 3.63636V2.81818C4.54545 2.07075 4.84237 1.35394 5.37088 0.825426C5.89939 0.296915 6.61621 0 7.36364 0H11C11.7474 0 12.4642 0.296915 12.9928 0.825426C13.5213 1.35394 13.8182 2.07075 13.8182 2.81818V3.63636H15.5455H17.3636C17.9159 3.63636 18.3636 4.08408 18.3636 4.63636C18.3636 5.18865 17.9159 5.63636 17.3636 5.63636H16.5455V17.3636C16.5455 18.1111 16.2485 18.8279 15.72 19.3564C15.1915 19.8849 14.4747 20.1818 13.7273 20.1818H4.63636C3.88894 20.1818 3.17212 19.8849 2.64361 19.3564C2.1151 18.8279 1.81818 18.1111 1.81818 17.3636V5.63636H1C0.447715 5.63636 0 5.18865 0 4.63636C0 4.08408 0.447715 3.63636 1 3.63636H2.81818H4.54545ZM3.81818 5.63636V17.3636C3.81818 17.5806 3.90438 17.7887 4.05782 17.9422C4.21126 18.0956 4.41937 18.1818 4.63636 18.1818H13.7273C13.9443 18.1818 14.1524 18.0956 14.3058 17.9422C14.4593 17.7887 14.5455 17.5806 14.5455 17.3636V5.63636H12.8182H5.54545H3.81818ZM7.36364 8.18182C7.91592 8.18182 8.36364 8.62953 8.36364 9.18182V14.6364C8.36364 15.1886 7.91592 15.6364 7.36364 15.6364C6.81135 15.6364 6.36364 15.1886 6.36364 14.6364V9.18182C6.36364 8.62953 6.81135 8.18182 7.36364 8.18182ZM12 9.18182C12 8.62953 11.5523 8.18182 11 8.18182C10.4477 8.18182 10 8.62953 10 9.18182V14.6364C10 15.1886 10.4477 15.6364 11 15.6364C11.5523 15.6364 12 15.1886 12 14.6364V9.18182Z" fill="#FF4848"/>
</svg>
