<svg width="64" height="64" viewBox="0 0 64 64" fill="none" xmlns="http://www.w3.org/2000/svg">
<circle cx="32" cy="32" r="29.5" fill="#066028" stroke="white" stroke-width="5"/>
<path d="M35.1725 19.85C36.482 19.8635 37.5485 20.5377 38.1695 21.7514C38.3298 22.0716 38.5534 22.5394 38.7875 23.0328L39.0702 23.6295L39.209 23.9225L39.344 24.2191C39.398 24.3135 39.4925 24.3809 39.614 24.3809C42.854 24.3809 45.5 27.024 45.5 30.2604V38.2705C45.5 41.5069 42.854 44.15 39.614 44.15H24.386C21.1325 44.15 18.5 41.5069 18.5 38.2705V30.2604C18.5 27.024 21.1325 24.3809 24.386 24.3809C24.494 24.3809 24.602 24.327 24.6425 24.2191L24.7235 24.0573C25.1015 23.2617 25.5605 22.2908 25.8305 21.7514C26.4515 20.5377 27.5045 19.8635 28.814 19.85H35.1725ZM32 28.4939C30.5825 28.4939 29.246 29.0468 28.2335 30.0581C27.2345 31.0695 26.681 32.391 26.6945 33.7935C26.6945 35.2094 27.248 36.5309 28.247 37.5423C29.2595 38.5402 30.5825 39.0931 32 39.0931C33.458 39.0931 34.781 38.4998 35.7395 37.5423C36.698 36.5849 37.292 35.2633 37.3055 33.7935C37.3055 32.391 36.752 31.056 35.753 30.0446C34.754 29.0468 33.4175 28.4939 32 28.4939ZM32 30.5166C32.8775 30.5166 33.701 30.8537 34.322 31.4741C34.943 32.0944 35.2805 32.917 35.2805 33.7935C35.267 35.6005 33.809 37.0703 32 37.0703C31.1225 37.0703 30.299 36.7332 29.678 36.1129C29.057 35.4926 28.7195 34.67 28.7195 33.7935V33.78C28.706 32.9304 29.0435 32.1079 29.6645 31.4875C30.299 30.8537 31.1225 30.5166 32 30.5166ZM39.5735 28.1702C38.8985 28.1702 38.3585 28.7231 38.3585 29.3974C38.3585 30.0716 38.8985 30.611 39.5735 30.611C40.2485 30.611 40.802 30.0716 40.802 29.3974C40.802 28.7231 40.2485 28.1702 39.5735 28.1702Z" fill="white"/>
</svg>
